<svg xmlns="http://www.w3.org/2000/svg" fill="none" viewBox="0 0 57 70"><path fill="#F1F3F9" d="M23.1.3c-2.4.6-4.1 2-5 4a10 10 0 0 0-1 4.5c-.2 6.1 3.3 9.7 9.3 9.4 3.1-.1 4.3-.5 6-2 2.4-2.1 3.3-6.3 2.2-10.5A7.6 7.6 0 0 0 29.3.4a15 15 0 0 0-6.2-.1Zm5.4 3.3c1.3.7 2.2 2.6 2.3 5.1.1 1.3-.3 3.4-.7 4.2-1 1.8-3 2.6-5.4 2.1-2.5-.5-3.9-3.8-3.2-7.8.3-2 1.4-3.4 3-4 1-.3 3-.1 4 .4ZM40.6.3c-2.3.8-3.5 2.4-3.5 4.6 0 2.7 1.2 3.8 6 5.8 2.1.9 2.6 1.3 2.7 2.1.2 1 0 1.6-.8 2-1.3.7-4.6.3-6.6-.7-.6-.3-.6-.3-1.3.7a5 5 0 0 0-.6 1.4c0 .9 3.4 2 6.7 2 2.8 0 4.2-.3 5.5-1.4 1-1 1.6-2.2 1.5-3.8-.2-2.2-1-3.2-3.9-4.5-1.1-.6-2.1-1-2.3-1L43 7c-1.5-.7-1.9-1.6-1.4-3 .5-1 3.6-1.3 5.6-.3 1.4.6 1.4.6 2.3-1 .6-1 .4-1.2-1-1.9-1.8-.6-2-.7-4.5-.8-1.7 0-2.5 0-3.4.3ZM1.7.4C1.3.5 1 .7 1 1v17l1.7.8c2.9 1.4 2.6 1.7 2.6-2.6l.1-3.8 2.7-.2c2.9 0 3.5-.2 4.6-.8 1.8-1.2 2.4-2.5 2.4-5.1 0-1.9-.3-3.1-1.3-4.2A7 7 0 0 0 10.4.5C8.7.3 2.4.2 1.7.5ZM10 4c1.2.9 1.3 3.5 0 4.6-.6.5-.8.6-3.2.6-1.7 0-1.5.2-1.5-2.7V3.6l2-.1c1.6 0 2.2.1 2.7.4Z"/><path fill="#F1F3F9" d="m50.8 3.9-.7 1 1 1.2c1.2 1.2 1.6 2 2 3.3.4 1.3.4 50.8 0 52.1a7.5 7.5 0 0 1-4 5l-1 .5H28.8C15 67.2 9.5 67 9 67c-2.6-1-4-2.4-4.8-4.5-.5-1-.5-1.7-.5-5.3V53H2.3c-.8 0-1.4 0-1.4.2-.1.4 0 7.5.1 8.3.6 3.5 2.9 6.2 6.7 8 .8.3 2.2.3 20.2.4 18.5 0 19.4 0 20.7-.4a10 10 0 0 0 7.1-7.3c.3-1 .3-4.4.3-27V9.7L55.6 8c-.5-1.5-1.4-2.8-2.6-4-1.4-1.3-1.4-1.4-2.2-.1ZM1 20v3.3c.2.2 1.6.9 3.3 1.6l3.3 1.4s-1.3.7-3.1 1.4C.9 29.1 1 29.1 1 31.1c0 2.1 0 2.1 3 .6a349.1 349.1 0 0 1 7.4-3.4c.4-.3 1.5.3 1.7 1 .2.5 0 1.6-.4 2-.3.4.2.9 1.3 1.3l.8.4.5-.7a5 5 0 0 0 .2-5c-.7-1.2-1.7-1.8-6-3.8L4.2 21c-2.4-1-3.1-1.4-3.2-1Z"/><path fill="#F1F3F9" d="M2.9 34.5c-.8.3-1.6 1-2 1.9a5 5 0 0 0 .7 4.6l.5.6-.6.7C.2 43.6.3 46 1.8 47.6c.2.3.3.5.1.5-.5.1-.6.1-.8.3-.2.2-.2 2.5 0 2.7.4.3 10.5.2 10.9 0 .2-.2.3-.7.3-1.6l-.1-1.5c-.1-.1-2-.3-4-.3-3.7-.1-4-.1-4.4-.6-.3-.3-.5-.7-.4-1.2 0-1.3.2-1.3 4.6-1.3 2.6 0 4-.2 4.1-.3.3-.4.3-2.6 0-3-.2-.2-.9-.3-3.3-.3H5a2 2 0 0 1-1.2-.6c-.5-.5-.6-.8-.5-1.3 0-.4.3-.8.5-1 .3-.1 1.8-.2 4.2-.2 4.3 0 4.4 0 4.3-2l-.2-1.3a43.9 43.9 0 0 0-9.3 0Z"/></svg>