<svg xmlns="http://www.w3.org/2000/svg" fill="none" viewBox="0 0 140 34"><path fill="#F1F3F9" d="M137 17.9c.2 0 .4 0 .5-.4 0-.3 0-.4-.2-.4h-.2l-.2.7h.2Zm-1 .6c.2 0 .2 0 .3-.2l.3-1.2c0-.2 0-.2-.2-.3v-.1l1.2.3c.3 0 .6.3.5.7-.1.2-.3.4-.6.4l.2.7.2.2v.2l-.5-.1-.2-.3-.2-.8h-.1l-.2.5c0 .2 0 .2.2.3v.1l-1-.2v-.2Zm1.5-2c-.8-.3-1.6.2-1.8 1-.2.9.2 1.7 1 1.9.8.2 1.6-.2 1.9-1 .2-.9-.3-1.7-1-2Zm.1-.5a2 2 0 0 1 1.4 2.5 2 2 0 1 1-1.4-2.4Zm-10.9 6 .2 1.3.2-1.3 2.4-7.1c.6-1.8.6-3.2-.2-4.2l6 2.1h-.1c-1.2.4-2.2 1.4-2.8 3.3L126.7 33l-3-1.2-2.9-14.4-.1-1.4-.3 1.3-2.6 8.1c-.6 2-.5 3.2.3 4.3l-6.3-1.8c1.3-.4 2.3-1.4 3-3.3l3.9-12.4c.6-2 .5-4-.7-5l5.8 1.6 3 13.1ZM106.6 6.8c-2.8-.7-4.7 2.8-5.7 7.2-1 4.7-.5 8.3 2 8.8 2.5.6 4.6-2.5 5.6-7.1 1-4.5 1-8.3-2-9Zm7 10c-1.6 6.2-6.2 10.4-11.6 9.3-5.9-1.3-7.7-6.9-6.2-13.2 1.6-6.2 5.8-10.2 11.3-9.2 6.5 1 7.9 7 6.4 13ZM85 23.3c-2.8 0-3-.9-4.6-1.2-1.2-.3-2 .2-2.3.6l.3-7.6a10 10 0 0 0 4 4.5c1.8 1 3.5.6 4.3-.5a3 3 0 0 0-.2-4c-1.2-1.2-3.1-2-4.7-3.3-3.2-2.4-3-5.8-2-7.6 1.4-2.6 4.4-3.6 7-3.4 1.6.2 2.3.6 3.4 1 1.1.3 2.1 0 2.3 0l-.4 6a6.7 6.7 0 0 0-4.6-4c-1.7-.3-2.7.3-3.1 1-.7 1.2-.4 2.4.8 3.3 1.8 1.2 3.9 2 5.3 3.4 2 1.9 2.7 5.3.9 8.3a7.6 7.6 0 0 1-6.4 3.5ZM75 .6l-.2 4.7c-.8-1.7-2.8-2.1-4.5-2h-3.7V9h1.9c2.5 0 3.2-.1 4.2-1.7l-.2 6.8c-1-1.7-2.8-1.9-4.5-1.8h-1.4l-.1 6.3h3.8c2.6.1 3.8-.6 4.6-2h.1l-.7 5.6c-4.6-.2-9.9-.2-14 0 1-.7 1.4-2 1.4-4.2L62 4.4c0-1.9-.1-3.1-1.5-3.8a195 195 0 0 1 14.7 0Zm-25.2.6 6.7-.5c-1.8.9-1.6 2.4-1.4 4.7l.9 13.1c.2 2 .7 3.4 1.5 3.8l-3.7.3-3.6.3c.7-.5 1.4-2.2 1.2-4.2L51 9.5V8l-.3 1.3-4.3 14.2-6.6-12-.6-1.4.4 1.5c0 .9 1.2 8.4 1.2 8.4.3 2 1.3 3.4 2.2 3.7l-5.8 1c.7-.6.8-2.2.6-4.1L36 7.6c-.3-2-1.3-3.6-2.8-4v-.1l6.6-1.2s5.5 10 6.5 11.5L50 1.2ZM22.1 11l-.6 8 4-1-3.4-7Zm9.7 15L28 27v-.1c.6-.5 1.2-1.8.3-3.5L27 20.6l-5.6 1.6-.2 3.1c0 1.9 1 2.7 1.7 2.9l-3.2 1-3.1 1V30c.5-.5 1.1-2 1.2-3.9.3-4.9.8-12.2 1.2-15.5.2-1.6 0-3-1.2-3.5 0 0 1.7-.6 3.8-1l3.8-1c-.8 1.1-.2 2.3.6 3.7l7.4 13.5c.9 1.6 1.5 2.2 2.4 2.6v.1l-3.9.8ZM5.3 13.7a2.5 2.5 0 0 0-2-1.9l3.2-1.2 3.6-1.2c-.5.5-.8 1.5-.5 2.7l3 11.9c.5 1.3 1 2.1 1.7 2.2-.3.4-.6 1.3-1 2.2-.4.8-1.2 3.4-4.3 4.6-3.4 1.3-6.8.5-8.3-2-1-1.5-.8-3.6.8-4.5 1.3-.7 2.8-.3 3.3.8s.2 2.3-.2 2.6c-.1.1 0 .3.2.4.9.6 1.9.6 2.9 0 1.3-.6 1.7-1.7 1-4.2L5.3 13.7Z"/></svg>