<svg xmlns="http://www.w3.org/2000/svg" fill="none" viewBox="0 0 70 70"><path fill="#F1F3F9" d="M32 .5v4.4a27 27 0 0 0-6.4 1.3l-1.8-4c2.6-1 5.4-1.5 8.2-1.7Zm14 1.7C43.3 1.3 40.4.7 37.5.5v4.4c2.3.2 4.6.7 6.7 1.4l1.8-4ZM20.6 8.3l-1.8-4a34.6 34.6 0 0 0-6.2 4.1l3.1 3.1c1.5-1.2 3.1-2.3 4.9-3.2ZM8.7 12.2l3.1 3.1c-1.3 1.5-2.4 3-3.3 4.8l-4-1.8c1.2-2.2 2.6-4.2 4.2-6ZM6.2 25l-4-1.7a30 30 0 0 0-1.8 8.5h4.4c.2-2.4.7-4.6 1.4-6.8ZM.3 37.2h4.5c.2 2.3.6 4.6 1.3 6.7L2 45.7C1 43 .5 40.2.3 37.2Zm8 11.7-4.2 1.9c1.2 2.3 2.7 4.6 4.4 6.6L12 54a29.9 29.9 0 0 1-3.7-5Zm4.1 12.3 3.4-3.4c1.5 1.2 3 2.2 4.8 3.1l-2 4.6a34.6 34.6 0 0 1-6.2-4.3ZM25.6 63l-2 4.6c2.7 1 5.5 1.5 8.4 1.7v-5a27 27 0 0 1-6.4-1.3Zm11.9 6.3v-5c2.4-.2 4.7-.7 6.9-1.4l1.8 4.2.2.3a37 37 0 0 1-9 2Zm11.8-8.6 1.8 4.2.2.4c2.2-1.3 4.3-2.7 6.2-4.4L54 57.5c-1.5 1.2-3 2.3-4.8 3.2Zm12-3.7-3.4-3.3c1.3-1.5 2.4-3.1 3.3-4.9l4.3 1.9a34.6 34.6 0 0 1-4.2 6.4Zm2.1-13.1 4.2 1.8c.9-2.7 1.4-5.6 1.6-8.5h-4.4c-.2 2.3-.7 4.5-1.4 6.7Zm5.8-12.1h-4.5c-.2-2.4-.7-4.7-1.4-6.9l4-1.7c1 2.7 1.6 5.6 1.9 8.6ZM61 20l4-1.7c-1.1-2.1-2.4-4-4-5.8l-3 3.1 3 4.4ZM57.2 8.7l-3 3a30.2 30.2 0 0 0-5-3.3l1.8-4c2.2 1.2 4.3 2.6 6.2 4.3Z"/><path fill="#F1F3F9" fill-rule="evenodd" d="M18.2 35.7v1.7a3 3 0 0 1 .2 0c.7 0 .7 0 1 .7v.1c0 .8.2 1.5.4 2.3l1.8 8.6c.1.3.2.4.6.4h2c.4 0 .5 0 .6-.4l1-4.2.3-1.3v-.2l.1-.2v.2l.1.3.3 1.2 1 4.3c0 .2.1.3.4.3h2.3A3943.5 3943.5 0 0 1 33 37.6c.2-.3.5-.3.7 0l.2.3.1.4 2.2 5.4v3.5c0 .4-.1.5-.5.6H35v1.6h5.4v-1.6H40c-.5 0-.6-.1-.6-.7a295.8 295.8 0 0 1 0-3.4l2-5.5c.2-.8.3-.8 1.2-.8.3 0 .4.2.4.5v9.4c0 .3-.1.5-.5.5H42v1.6h.2a451.8 451.8 0 0 1 5 0c.6 0 1.2 0 1.8-.2 1-.2 1.7-.8 2-1.8.1-.7.2-1.3.1-2-.1-1.5-.8-2.3-2.2-2.8h-.2a32.4 32.4 0 0 0 .3-.2 3 3 0 0 0 2-2.9v-9.7h-2v1.5l-.1.2-.1 1.6a2 2 0 0 1-1.4 1.7c-.8.2-1.5.2-2.3.2h-.8V20.3c0-.7.3-1 1-1h1v-2.4H34.5v2.4a71.1 71.1 0 0 0 .4 0c1 0 1.1.2 1 1.1l-.2.8-1.5 8.8-.2 1.2a472.8 472.8 0 0 0-.2.1l-.4-2.5a4904.2 4904.2 0 0 0-1.6-8.6c-.1-.7.1-1 .8-1h.7V17h-7.1v2.4h.5c1 0 1 0 .9 1l-.9 5.7-.5 3.2c0 .7-.2 1.3-.3 2 0 .4 0 .8-.2 1.2v-.2l-.9-4.8c0-.8-.2-1.6-.3-2.3l-.3-1.5-.5-3.3c-.1-.8 0-1 .8-1h.7V17h-6.8v2.3h.5c.8 0 .9 0 1 1.3a29053.6 29053.6 0 0 1 3 15.2h-4.7Zm20.5-.7h-.2v.7h-3.1a374.9 374.9 0 0 0 .2-1.5l2.6-13.8V20c.3-.8.6-.9 1.4-.7l.3.4v.7l.1 13.5v.3c0 .5-.3.7-.8.8h-.5Zm-9.5-7.2 1.7 8h-3.5l1.8-8Zm-5.6 18-.6-3-.6-3.6V39c-.2-.3-.2-.7-.3-1 0-.3 0-.5.4-.5h2.2c.3 0 .3.2.3.4l-.3 1.4-1 6.3v.2h-.1Zm6.1-.5-.4-1.8-.7-3.4a244.5 244.5 0 0 0-.4-2.1c0-.4 0-.6.4-.6h2c.5 0 .6.2.5.6l-1.3 6.8v.4h-.1Zm16.2 2.5v-4.3c1.7-.2 2.3.4 2.3 2l-.1 1.3c-.1.5-.5.8-1 1h-1.2Zm.3-6h-.3v-4.4c.5 0 1 0 1.4.2.4.2.5.5.6.9a5 5 0 0 1 0 2.2c-.1.6-.5 1-1.1 1h-.6Zm-8-.3a711.4 711.4 0 0 0-1.2-3.6c-.1-.4 0-.5.3-.5a43 43 0 0 1 1.8 0c.3 0 .5.1.4.4l-.9 2.7-.3 1Z" clip-rule="evenodd"/></svg>