<svg xmlns="http://www.w3.org/2000/svg" fill="none" viewBox="0 0 140 48"><path fill="#F1F3F9" d="M54 41.6c-5-3.5-12.1-4-23.4-.8-12.1 3-16.1 4.8-21.4 1C7.2 40 6.4 37 7 32.6a47 47 0 0 1 10.7-21.3c3.4-3.9 6.5-7.2 10.6-8.6 3.2-.8 3 1.8 2.5 2.2-.4 0-1 0-1.6.4-.4.3-1.6 1.4-1.6 3-.1 2.2 2.1 1.7 3.1.5 1-1.4 2.7-4.1 1.4-6.7A3.6 3.6 0 0 0 29.6.4C25.8.2 22.3 2.1 19 4.1a47.6 47.6 0 0 0-16 20c-1.9 4.7-3.5 11.5-1 17 2 3.7 6 5.8 10.8 5.3 3.4-.3 7.5-1.5 10.2-2.1 2.8-.7 16.9-5.8 21.5 3 0 0 1.5-3.1 5.4-3.2 3.2-.3 7.7 1 11 3.5a28.4 28.4 0 0 0-6.8-6Z"/><path fill="#F1F3F9" d="M32 12.2c-2.6-1.8-8 1.7-12.2 7.5C16 25 14.3 31.2 16.1 34c2.7 3.3 7.7-1.5 9.9-4.1l.3-.3c1.4-1.6 2.5-3.6 3.6-5.5l1-1.8a23 23 0 0 0 2.3-.5s-3.2 5.6-2.9 8.4c.1.8 0 3.9 3 4.8 3.8.7 6.9-2.4 9.6-5.2l.7-.7-.1.6c-1.1 4.1.4 5 1.3 5.3 3 .9 6.4-3.5 6.4-3.5-.1 1.4-.4 2.5 1 3.4 1.3.5 2.7-.2 3.7-1a39 39 0 0 0 9-10.4h-1.6s-3.7 5.6-6.1 6.8c0 0-.5.3-.7.1-.3-.3-.2-.9 0-1.3l9.3-16.7h-4.4l-.5.8-.2-.2C58 9.1 52 15.1 47.2 22a45 45 0 0 1-6.4 8s-3.5 3.3-5 .9c-.5-1-.4-2.5 0-3.5 1.7-5 4.7-9.7 8-12.6 1-.7 2.1-1 2.6-.6.5.3.6 1 .3 1.5a3 3 0 0 0-2 .8c-1 1.1-1.3 2.2-1 3.2 1.6 2.3 4.7-2.3 4.5-5 0-1-.5-2-1.3-2.5-1.1-.7-2.9-.5-4 0a18 18 0 0 0-5.3 4.3c-1.8 2-4.8 4.3-5.8 4 .3-.8 2.9-6.2.2-8.3Zm21.2 8a38 38 0 0 1 4-5c2-1.9 2.8-1 2.8-.5A421.2 421.2 0 0 1 53.1 27a10 10 0 0 1-3.4 3.6c-.2 0-.6.1-.8 0a1 1 0 0 1-.4-1c.1-1 1.2-4.5 4.7-9.3Zm-24 2.2v.1l-1.9 3.3a13.5 13.5 0 0 1-4.4 4.5c-.5.2-1.2.3-1.6-.2-.8-1-.4-2.3 0-3.4v-.4a33.2 33.2 0 0 1 4-7.3c1 1.9 2.7 2.7 4 3.1v.3Zm1.9-3.8-.9 2h-.9c-1.2-.5-2-1.3-2.3-2.2-.4-2 1.2-3.4 1.8-4 .7-.5 1.7-.7 2.3-.2.4.4.5 1 .5 1.6 0 .9-.2 1.9-.5 2.8Zm55.5 6.1c-.4-1-1.4-1.6-2.5-1.5-3.5.3-6.9 3.3-8.7 7.5-.9 2.2-1.4 4-1.7 7a16 16 0 0 1 5.8-4.7s.3-2.7 2-5.2c.7-1 2-2.6 3.5-2.2 1.3.5.8 4.2-.9 7.8a24.8 24.8 0 0 1-5.2 7c-1.7 1.6-4.3 3.4-6.5 2-1.4-.9-2.2-2.7-2-5C71 30.7 74 25 78.2 18.6c4.3-6 9-12.2 15.4-15.5 1.3-.7 2.6-.8 3.6-.4 0 0-6 3.4-8.9 9.8-.7 1.6-1.7 3.8-.7 5.7.5 1 1.5 1 2.2 1 3.6-.8 5.8-4.2 7.7-7.3a17.6 17.6 0 0 0 2-8.4c1.6-1 5 .7 5 .7 2.8 1 8.5 5.5 10.4 6.3l3.4-3.7L117 6l-6.2-3.7a12.1 12.1 0 0 0-10.7-1l-1.4.6C97.2.2 94.7.4 93 .9a38.9 38.9 0 0 0-18.6 14.5 53.8 53.8 0 0 0-9.2 17c-1.1 3.7-1.5 9 1.4 12.1 2.5 2.7 5.7 2.1 8 1.2 5-2.6 9.6-8 11.8-14.4.5-2 1.1-4.6.2-6.6ZM98.1 4.8c-.6 7.9-6.5 12.5-8 12.9-.9.2-2.4-.2-1-3.5 2-4.5 5.3-8.3 9-10.2v.8Zm35.1 1c-3.2 1.9-6.5 3-10.5 2.7a63.3 63.3 0 0 0-3.1 4c5.6 1.4 11.5-1.8 14.8-5 3.5-3.1 5.3-7 5.3-7s-2.6 3-6.5 5.3ZM70.8 16.3l2.3-4H69l-2.3 4h4.2Z"/><path fill="#F1F3F9" d="M122.7 42c-.4.3-1 0-.8-.7.6-1.9 2.9-5.6 2.9-5.6l6.5-12h-4.5l-.6 1.2-1.1-1.3c-1-.7-2.7-.4-3.8.3a38 38 0 0 0-11 13s-3 5-4.5 5.4c-1.3.1-1.1-1.6-1-2 .4-3 1.5-5.8 2.7-8.4A75.7 75.7 0 0 0 125 13.4l-1.6.2A73.5 73.5 0 0 1 108.8 29a98.3 98.3 0 0 1 14.3-22l1-1c1.4-1.5 3-3 4.1-3.3.2 0 .3 0 .5.3 0 1.2-.4 2-.9 3l-.7 1.4s1-.1 1.6-.4c.7-1.4 1.5-3 1.2-4.8 0-.6-.5-1.1-1-1.2-1.8-.4-3.8 1-5.4 2.1a79.2 79.2 0 0 0-21 29.2c-.5.4-2.2.8-2.5.6.6-1.3 1.4-3 1.8-4.8v-1.6c0-1.2-.2-2.2-1.2-3-1.1-.6-2.5-.3-3.5.2-4.3 1.8-7.5 6.4-9.8 10.1-1.2 2.4-2.5 5-2.8 7.9-.3 2.3.2 3.8 1.5 4.5 1.3.7 2.9 0 3.5-.4a28 28 0 0 0 9.8-11.5c.1 0 1.4 0 2.4-.3l-.5 1.8c-1.5 4.6-2.2 7.8-.8 9.6 2 2.7 5.4 0 8.2-3.6-.6 4.3 1.6 5 3.2 4.6 1.9-.5 4-2.6 5-3.7-.4 1.3-.3 3.5 1.4 3.7 1.2.3 2-.4 3-1 3.7-2 8.1-8.9 9.2-10.9H129c-1.6 2.6-3.6 5.9-6.2 7.4ZM90 41.4l-.3-1.2c0-2.6 2.6-7.2 4.5-9.7a7 7 0 0 0 3.7 3.4c-1.3 3.1-6 9.8-7.9 7.5Zm8.7-8.9c-.2.1-2.4-.7-2.9-2.8-.3-2 1-3.4 2.1-4.1a2 2 0 0 1 1.9-.4c.5.4.6 1 .6 1.8v1.3a18 18 0 0 1-1.7 4.2Zm18.1 8-.4.4c-.6.6-1.2 1.2-2 1l-.4-.7c0-1.6.7-3.1 1.4-4.6l.1-.3c2-3.4 4.3-7.5 7.6-10.2.6-.5 1.2-.8 1.9-.5l.3.6-.1.4c-1 1.5-1.8 3.2-2.7 4.8a67.1 67.1 0 0 1-5.7 9.2Z"/></svg>