<svg xmlns="http://www.w3.org/2000/svg" fill="none" viewBox="0 0 60 60"><path fill="#F1F3F9" d="M49.79 38.21h3.01v-2.05h-8.54v2.05h2.99v7.96h2.54v-7.96Z"/><path fill="#F1F3F9" fill-rule="evenodd" d="m18.47 43.36 1.49 2.81h2.88l-2.1-3.3c1.21-.6 1.82-1.67 1.82-3.21 0-1.12-.36-1.98-1.09-2.58-.72-.6-1.75-.9-3.07-.9h-4.47v10h2.54v-2.82h2Zm-.07-2h-1.93v-3.2h1.93c.55 0 .98.14 1.28.41.3.27.46.65.46 1.17 0 .53-.15.93-.46 1.2-.3.28-.73.42-1.28.42Z" clip-rule="evenodd"/><path fill="#F1F3F9" d="M26.83 38.17h5.29v-2h-7.83v10h7.99v-2h-5.45v-2.01h4.77v-2h-4.77v-1.99Zm16.41 8H41l-4.6-6.15v6.15H34v-10h2.25l4.61 6.17v-6.17h2.37v10Z"/><path fill="#F1F3F9" fill-rule="evenodd" d="M31.51 23.2a5.43 5.43 0 0 0-3.87-1.45c-1.54 0-2.83.49-3.86 1.45a4.74 4.74 0 0 0-1.54 3.63c0 1.47.51 2.69 1.54 3.66a5.38 5.38 0 0 0 3.86 1.47 5.4 5.4 0 0 0 3.86-1.47 4.85 4.85 0 0 0 1.56-3.66c0-1.45-.52-2.66-1.55-3.62Zm-5.84 1.54a2.69 2.69 0 0 1 2-.85c.77 0 1.43.28 1.96.85.54.56.81 1.27.81 2.1a3 3 0 0 1-.8 2.13 2.6 2.6 0 0 1-1.97.86c-.78 0-1.44-.28-2-.86a2.94 2.94 0 0 1-.83-2.12c0-.84.27-1.54.83-2.11Z" clip-rule="evenodd"/><path fill="#F1F3F9" d="M16.47 23.84h4.87v-2h-7.41v10h2.54v-3.68h4.49v-2h-4.49v-2.32Z"/><path fill="#F1F3F9" fill-rule="evenodd" d="m40.35 31.84-1.49-2.81h-2v2.81h-2.54v-10h4.47c1.33 0 2.35.3 3.07.9.73.61 1.1 1.47 1.1 2.59 0 1.54-.61 2.61-1.82 3.21l2.1 3.3h-2.89Zm-3.49-4.81h1.93c.55 0 .98-.14 1.29-.42.3-.27.45-.67.45-1.2 0-.52-.15-.9-.45-1.17-.3-.27-.74-.4-1.29-.4h-1.93v3.19Z" clip-rule="evenodd"/><path fill="#F1F3F9" d="M26.61 17.96h-1.93l.3-2.43h-2.1l.21-1.85h2.12l.26-2.23H23.4l.2-1.85h2.11l.31-2.54h1.93l-.31 2.54h.97l-.23 1.85h-.96l-.8 6.51Z"/><path fill="#F1F3F9" fill-rule="evenodd" d="M13.93 7.51h4.36c1.27 0 2.26.3 2.97.9.7.61 1.06 1.47 1.06 2.59 0 1.17-.36 2.08-1.06 2.73-.7.65-1.7.97-2.97.97h-1.82v2.82h-2.54v-10Zm2.54 2v3.19h1.69c.56 0 1-.14 1.3-.42.3-.27.46-.67.46-1.2 0-.52-.16-.9-.46-1.17-.3-.26-.74-.4-1.3-.4h-1.69Z" clip-rule="evenodd"/><path fill="#F1F3F9" d="M32.06 7.06h-1.93l-.82 6.62h-.96l-.23 1.86h.95l-.3 2.42h1.94l.3-2.42h2.11l.22-1.86h-2.1l.28-2.22h2.13l.2-1.86h-2.1l.31-2.54ZM39 7.4c1.49 0 2.8.37 3.93 1.11l-.95 1.99a8.62 8.62 0 0 0-1.69-.75c-.6-.2-1.1-.3-1.51-.3-.74 0-1.1.25-1.1.73 0 .32.18.57.54.76.36.2.8.36 1.32.5.52.13 1.04.3 1.56.5s.96.5 1.32.95c.36.43.54.99.54 1.65a2.6 2.6 0 0 1-1.13 2.25c-.75.54-1.7.81-2.87.81A7.33 7.33 0 0 1 34.4 16l.98-1.96a6.42 6.42 0 0 0 3.62 1.5c.4 0 .73-.07.96-.22a.73.73 0 0 0 .34-.65c0-.28-.13-.5-.39-.69a2.77 2.77 0 0 0-.98-.42 14.05 14.05 0 0 1-2.54-.86 2.34 2.34 0 0 1-.98-.87c-.26-.4-.4-.87-.4-1.42 0-.91.37-1.64 1.1-2.2A4.7 4.7 0 0 1 39 7.4Zm10.72 2.15h3.02V7.5h-8.55v2.05h2.99v7.97h2.54V9.55Z"/><path fill="#F1F3F9" fill-rule="evenodd" d="M6.69 53.31h50A3.32 3.32 0 0 0 60 49.99V3.46A3.46 3.46 0 0 0 56.54 0H10.19a3.5 3.5 0 0 0-3.5 3.5v49.81Zm3.37-49.94h46.57v46.57H10.06V3.37Z" clip-rule="evenodd"/><path fill="#F1F3F9" d="M3.37 56.63V6.69H0v50A3.3 3.3 0 0 0 3.3 60h50.01v-3.37H3.37Z"/></svg>