<svg xmlns="http://www.w3.org/2000/svg" fill="none" viewBox="0 0 87 70"><path fill="#F1F3F9" d="M16.7 56.3c3.7 0 5-.2 5.7 4.3h.4v-5H12.6v.7h1.7v13h-2v.7H23v-5.3h-.5c-.5 4-1.5 4.6-4.5 4.6h-1.3V63h.8c1.2 0 2 .8 2.3 3h.5v-6.5h-.5s-.1 2.8-2.3 2.8h-.7v-6Zm-4.2 6H6.8v.7h1.9v4.7c-.3 1.1-2.1 1.6-2.6 1.6-3.7 0-3.4-5.3-3.4-6.7 0-1.3-.1-6.8 3.4-6.8 2.5 0 3.8 2.4 4.3 4.6h.3v-5.2L9 56.4s-.8-1.2-3-1.2c-4.3 0-6 4.3-6 7.3 0 2.7 1.3 7.4 6 7.4a4 4 0 0 0 3-1.5l1.8 1.4V63h1.6v-.6Zm67 2.3c-.5 4-1.6 4.6-4.5 4.6h-.2v-13h1.8v-.6h-6v.7h1.9v13H71l-5.3-14h-.8L60.4 68s-.3 1-1 1.2c-.7 0-.6-.3-.6-.5v-2.5c0-.6-.1-2-.7-2.8-.8-.7-2-.7-2-.8 0 0 3.2-.7 3.2-3.8 0-2.2-1.5-3.3-4-3.4H48v.7h1.8v13H48v.7h6v-.7h-2V63h2.5c4.3.3-.8 6.9 4.8 6.9H63v-.7c-.2 0-1.4 0-1.5-.8-.1-.7.9-3 .9-3H67l1.6 3.8H67v.7h13.1v-5.3h-.6Zm-25-2.3H52v-6h3c1.8.3 2 2.3 2 2.9 0 1.5-.8 3-2.6 3Zm8.1 2.5 2.2-6.2 2.2 6.2h-4.4ZM41 56.2c3.7 0 5.1-.2 5.7 4.3h.4v-5H32.2v.7h.4c.5 0 1.8 0 1.9 1.2v8.3l-7-10.2h-3.7v.7h.5c.8 0 1.8 0 1.9 1.2V68c0 1-1.6 1.4-2.2 1.4v.5h5v-.5c-.7 0-2.2-.4-2.2-1.4v-9.4c2.7 3.9 7.8 11.3 8 11.3h.2V57.4c.1-1.1 1.3-1.2 1.9-1.2h1.6v13h-2v.7h10.6v-5.3h-.5c-.5 4-1.6 4.6-4.5 4.6H41V63h.8c1.2 0 2 .7 2.3 3h.5v-6.6H44s-.1 2.8-2.3 2.8H41v-6h-.1Zm39.8-.7v.8h1.9v13h-1.9v.6h6v-.7h-2v-13h2v-.7h-6ZM71 46.6l1.9-.6c2.6-1.1 3-1.8 2.8-3.5v-7c2 5 3.9 8.5 7.6 8.5.5 0 1.1 0 1.7-.2l1.5-.3-1.1-1.1c-.7-.7-1-1.3-1.4-2l-.5-.8c-.8-1.5-3-2-4.7-1.2-.8-1.5-1.6-3.5-2.5-6l-.2-.5-.5-1.2-2-4-2.1-3c-2-2.3-4.7-3.7-7.9-4.3-2.2-.4-3.8-.5-5.8-.6h-1.3l-4.5-.5-3.4-.2v-2h12.8c3.3 0 5.7-1.4 7-4.3 3.4 0 5.7-1.6 7.2-4.4h.5c3.4 0 5.8-1.5 7.2-4.6l.5-.9H40.5a6.6 6.6 0 0 0-6.2 4.8 9.5 9.5 0 0 0-11.1-6l-2 .8c-.5.4-1.3 1-1.8 1.6-.6.7-1 1.5-1.5 2.3-.3.2-.5.4-.5.6l-.5 1c-.6 1.4-1.4 2.4-2 3.1-.6.7-.6 1.4-.6 1.8.1.5.3.8.6 1.1a2 2 0 0 0-.3 1c0 1.2 1 2 2.3 2a4 4 0 0 0 2.4-1c.3-.1 1.2-.7 1.5-.7.3 0 .6.3.6.7 0 1-1.1 1.4-2 1.4l-1.8.2c-1.2.1-1.8.8-1.8 1.4 0 .5.3 1 .5 1.1v.1l.6.4-2 3a8.7 8.7 0 0 0-4.4-2c-.8 0-1.6.3-2.2.8L8 22a4 4 0 0 0-3.2 1.7c-.7 1-.4 2.6.4 3.8l-5 1.3v22.4h86.5v-4.5H71Zm11.2-6 .5.7.6 1c-1.4-.1-2.5-.9-3.4-2.2.8-.4 1.9-.1 2.3.5ZM63.4 21.4c2.8.5 5 1.8 6.8 3.7l1.1 1.4c-4.7-.6-6.3-1.3-9-5.3l1.1.2Zm-2-6.7h-8.9a8 8 0 0 0 1.9-2.5h12c-1 1.7-2.7 2.5-5 2.5Zm7-4.3h-8.9c.8-.6 1.5-1.5 2-2.6h12c-1 1.8-2.7 2.6-5.1 2.6Zm.7-6.6h11.8A5.7 5.7 0 0 1 76 6h-8.8c.8-.7 1.5-1.5 2-2.3Zm-48.2.4c.2-.4.7-.8 1.2-1.2.4-.3 1-.6 1.6-.7a7 7 0 0 1 2.8 0l-3.2 2-1.2-.1h-1.4.2ZM17.2 18c0-.1 0-.2.2-.2h1.5c1.9 0 3.8-.8 4-2.7 0-1.4-1-2.6-2.2-2.6a5 5 0 0 0-2.5 1c-.6.4-1 .7-1.3.7-.2 0-.4-.2-.4-.3v-.1l1-1.3-1-.6-.4-.5v-.3c.5-.4.9-.9 1.3-1.5.2-.4.3-.6.7-.6.4 0 .8.3.8.7 0 .3.3.5.7.5.4 0 .6-.3.8-.5 0 0 .8-.7.4-1.1-.5-.4-2.7.5-2-1.5l.1-.2c.2-.3 1.3-1.1 3.3-1.1h1.6l4.4-2.6.1.2c.2 1.3-.5 2.9-2 3.6l-.5.3.4 2c-1.2.4-2 1.3-2 2.4l.2 1.3.3 2c0 2.2-2.9 3.5-5.3 3.4h-.1c-.1 0-1.7 0-2-.3l-.1-.1ZM6 24.6c.4-.6 1.1-1 2.1-.8H9l.3-.6c0-.2.2-.4.3-.5.2-.2.6-.3 1-.3 1 0 2.4.8 3.4 2 .4.3.8.9 1.1 1.4l.2.3.2.3s.6.8.6 1l1-1.6v-.1l-.3-.7h-.1l-.1-.3a3 3 0 0 0-.4-.6l2.3-3.6H20c3.4 0 6.8-1.9 6.8-5 0-1-.2-1.7-.3-2.4l-.2-1c0-.4.5-.8 1.2-.8h1L28 8.6c1.5-1 2.5-2.9 2.4-4.5a8 8 0 0 1 2.9 5.6l-.3 2.5v.4l-1.4 4-.2.6.6.4c1.2.6 2 1.1 2 2.7 0 1.8-1.7 3.2-3.2 3.5l-2.3.3 1.9 1.3c.6.4 1 1 1 1.7 0 1.2-1 2-2.2 2h-.7l-.2.6c-.6 2.2-1.3 3.2-3.7 3.5V28L23 29.4c-.5.5-1.4 1-2.3 1.1v-1.7L10.4 26 7 27c-.8-.8-1-2.2-.8-2.5Zm-3 22 7.4-1.9 7.4 2H3.2Zm16-1.5-8.4-2.2L2 45V30l8.4-2.2 8.5 2.2v15Zm4-3c-.8 1.2-.9 2.7-.3 4.5h-1.8V32.3c.6 0 1.3-.2 2-.5l-.2 1.7-.1.5-.2 1h1a10 10 0 0 0 3.8-.6v6c0 .2-.1.2-.3.2h-.3c-1.6 0-3 .5-3.6 1.6Zm19.4.5c-.6.8-1.2 2-.8 4h-11c1.1 0 2-.4 2.6-1 .7-.7.8-1.7.8-2.4 0-.1 0-.3.7-.6l1-.4-.7-.9c-1-1.4-.4-4.5-.2-6.3h.1c3.7 0 6.2-.7 8.7-1.5l2-.7c.7-.3.8-.2 1.8-.5l3.6 6c.4.5.4.9-.3 1.6l-1.8 2-2.9-.7c-1.2-.2-2.7.4-3.6 1.4Zm1 4c-.3-1.2-.2-2.2.4-2.9.6-.6 1.4-.7 2-.7l3.4.5h.6l2.4-2.6c.4-.4 1.7-1.9.4-3.7L49.3 32l1.6-.1c.5 0 1.6 0 3.4 1 .2.4.6 1 .9 1.9.6 1.3 1.5 3 1.7 3.7.1.2.3.9-.5 1.8l-6.1 6.4h-7Zm21 0H52.6l5-5.2c1-1 1.4-2.3.9-3.5l-1.6-3.4c2 .8 5 1.7 11 2.2.9 0 1 .3 1.2 1l.3 2.6-3.3.6a3 3 0 0 0-2.3 2c-.4 1.1-.2 2.5.5 3.7Zm1.3-3c.2-.5.4-.8 1-1l4.7-1-.4-4.2v-.1c0-.6-.5-2.3-2.7-2.4-8.6-.7-10.5-2-12.7-3.3v-.1C53.2 30 51 30 50.8 30c-2.4 0-5.5 1-5.7 1l-2.2.8c-2.7.8-5 1.6-8.8 1.4h-.7l-.2.7c-.1.5-1.3 4.8-.2 7.5-1 .8-1 1.6-1 1.8 0 1-.2 1.1-.3 1.2-.4.5-2 .5-3.2.5H28l-.2.4c-.8 1-2.5 1.3-3.5 1-.5-1.4-.5-2.5 0-3.1.5-.8 1.6-1 2-1h.4a2 2 0 0 0 2-2v-7.6c.4-.4.6-1.1.9-1.8a3.8 3.8 0 0 0 3.3-3.8c0-.7-.2-1.4-.6-2 1.8-.9 3.2-2.5 3.2-4.7a4 4 0 0 0-2.2-3.9l1.2-3.8 1.4-5.4a4.7 4.7 0 0 1 4.5-3.4h26.4a5.7 5.7 0 0 1-5 2.3H46l-.9 1.7h14.4a5.7 5.7 0 0 1-5.1 2.6H44l-.9 1.8h9.2c-1.1 1.7-2.7 2.5-5 2.5h-5.6l-1 1.7h6c.1.1.2.4.2 1 0 1.2-1 2.1-2.1 2.1a3 3 0 0 1-1.4-.4c-.3 0-.5-.2-.8-.3l-1.3 1.3c.3 0 .4.2.7.3 1.2.5 1.9.7 2.8.7 1 0 2-.4 2.8-1.1l4.3.3 4.6.4H58l2.2.2c3.6 5.7 5.5 6.5 12.5 7.4.4.9 1 1.8 1.3 2.8v12.2l-1.6.8-6 2.4c-.7-1-1-2-.7-3Z"/><path fill="#F1F3F9" d="m11.4 32.8 5.7 1.5v-1.9L11.4 31v1.8ZM9.6 31l-5.7 1.4v1.9l5.7-1.5V31Zm0 3.7L3.9 36v2l5.7-1.4v-1.8Zm1.8 1.8 5.7 1.4v-1.8l-5.7-1.4v1.8Zm0 3.7 5.7 1.4v-1.8l-5.7-1.5v1.9Zm-1.8-1.9-5.7 1.5v1.8l5.7-1.4v-1.9Z"/></svg>