<svg xmlns="http://www.w3.org/2000/svg" fill="none" viewBox="0 0 140 44"><path fill="#F1F3F9" d="M0 22V0h22L0 22Zm40.3-8.5c0-1.6 1.3-2.8 2.9-2.8h10.3v2.8H40.3Zm-2.9 2.9c0-1.6 1.3-2.9 2.9-2.9v5.7h-3v-2.8Zm2.9 4a2.9 2.9 0 0 0-3 2.8v10.2h3V23.2h10.3v-2.8H40.3Zm37.8-9.7h5.7a6 6 0 0 1 5.9 5.9v.7a6 6 0 0 1-6 6h-8.5v10.1h-2.9V23.2c0-1.6 1.3-2.8 3-2.8h8.5a3 3 0 0 0 3-3v-.8a3 3 0 0 0-3-3h-8.6a3 3 0 0 1 3-3Z"/><path fill="#F1F3F9" d="M75.2 13.5v5.7h-2.9v-2.7a3 3 0 0 1 3-3Zm-15 0v20h3V10.6a2.9 2.9 0 0 0-3 2.8Zm46.2-2.8h-5.7a2.9 2.9 0 0 0-2.9 2.8 2.9 2.9 0 0 0-2.9 3v2.7h3v-5.7h8.5a3 3 0 0 1 3 3v.8a3 3 0 0 1-3 3h-8.6a2.9 2.9 0 0 0-2.9 3v10.1h3V23.2h8.5a6 6 0 0 0 6-5.9v-.7a6 6 0 0 0-6-6Z"/><path fill="#F1F3F9" d="m109.2 33.4-5-8.7h.8c1.4 0 2.7.7 3.4 2l3.9 6.7h-3.1ZM132 22.3h3l-3.5-9.1a4 4 0 0 0-7.4 0l-8 20.2h3.2l8.5-21.6 4.1 10.5Z"/><path fill="#F1F3F9" d="M125.3 23.9a3 3 0 0 0 3 2.9h5.4l2.7 6.6h3.1l-2.8-7.2a3.7 3.7 0 0 0-3.5-2.3h-7.9ZM0 22v22l22-22H0Z"/></svg>