<svg xmlns="http://www.w3.org/2000/svg" fill="none" viewBox="0 0 1001 846"><path fill="#22252A" d="m600 642 2 4h2l2 2 2 3v3l-1 3 1 2-1 1 1 3v2l1 2 2 2 1 2h2l1 1v2l2 2-1 3-2 1-2 3v2l-1 1h-2l-2 2 1 2-1 1v2l-1 1-3-1-1-3-2-3-5-3-2-2 1-1v-2l-2-3v-3l1-2v-6l-1-3 1-2 1-2v-2l-2-2h-2v-4h2l-2-3 3-7 2 1 1 2 4-1Zm-266 1-3 1-1-1v-2l1-1 3 1v2Zm633 50-4-3-2-2-2-1h-4l-4-1-2-1 1-1-2-3-1-2 1-2v-2l-2-4-2-2-1-1 5-1 6-1h9l-1-1 3-1 2 2 1 1-1 1 3 1h1l4 3v1l-2 2v1l3 4 3 2 4 1v1l-1 3h-3v1l2 2 7 5 2-1 3 1v2l-1 1 2 2 1 2h-2l1 2 1 3h-3l-2 1-4-6v-1l-3-2v-2l-1-2-2 1-2 1-4-2h-1v-1l-2-2-4 1ZM546 535l-1 3 2 4 2 3v1l-1 2 1 2-5 1-3-1-1 1 3 1v3l-3 1 1 2-1 1 1 2v2h-3l-2 2-1 1v3l-3-1h-2l-3 2-3-1-3 1h-2l-1 2-4 1-5-1-6-1h-3l-5-1-10-1-1-1-3-4v-3l-6 2h-7l-2 1-1 3h-4l-1-1-3-1-1-1-1-1-2 2h-3l-2-1v-1l-4-1v-1l-1-3 1-3-1-1 2-1h1l4 2 1 1 2 1-1 1 2-1 1-1 1-3h3l3 1 2 2 4-1 1-1 5-1 6-1v-2l3 1 1 1 3-1 1 1 1 1 1 1h2v-3l-2-1 1-1v-2l-3-3v-1l4-3h3l1-2 1-3 3 1 1-1 1-3 2 1 1 2h5l1-1 3 1v-1l2-2h1v-4h2l2 1 1-1 6 2h1l4 2h4l2-1 6 2 1 2Zm-159-38 2-1 1 1h2l3 3-1 2h2l1 3-3 1v2l-2-1-2 2-1 3-1 2 3 2-2 2-4 1-3-3-4-2h-2v-2l-1-1 1-3-2 1-1 1-1 1h-5l-1-1 1-1-1-1 1-2-2-1-4-1-1 1-1-3-5-1v-2l-2-2-4 1-3-3v-1l-1-3 6-3 5-2v2l2 1 1-1 5 1 3-2 1-1h2v-1h2l1 1 2-2 1 2 3-1 1 2 3 1h2l2 1 3 2-1 3-1 2v1Zm333 124v4l-1 2-2-1-3 1-1 2-1 1v8l-2 1-3 4 4 2 2 3 2 3 1 1h-5l-2 1-4-3-4 1-2 1h-3l-2 3h-2v2l-2-1-2 1 1 2 1 3v1l-3 1h-6l-4 1-2-1-4-1h-1l-3-1-1-2h-7v1h-2l-4 2-3-1-2 1-1 1h-4v-5l1-2-1-1-2-4-4-2-4-4h1l1-2-1-4v-3l1-1h2l1-2 2-2 1-2-2-1-2-1-3-2-3-5-1-2 1-3 2-1 1-2 1-1 4 3-2 2 1 2 5-1 4 1 6 1h7l11 2h5l2-1 2-1 2-2 3-2 4-1 5-2h4l5 3h3l1 1 2-1 3 3 3 1 3 1h2Zm-139-20 3-1 2 1-1 3-2 3v3l1 1 2 1 4 3v1h-4v1l3 4v3l-3-1-1 1-3 1 1 3h-2l-3 2v3l-2 1h-1l1 4 1 2v1l-1 1-2-1-7-4-1-1h-2l-1-1v-2l-3-3-2-2v-2l-3-1-6-5-2-2-3-3-2-3-2-4-4-4-2-2v-7l2-1 2 1 2 2 2 1 3-4 3 1 2-2 3 2h3l3 1 2-1 2 2 3-1h4l3 1h2l2 1 1 2 3 1Zm99-196 2 1h1l2-1 4 3 2-1h1l5 1v3l2 1 2-1 3-1h4l3 1 3 2 4 1 1 3-1 2 2 3 1 1-2 2v3l5 2 1 1-1 2h2l2 3 1 2 6 2 1 1-1 3 6 1 4 1v2l1 1 3 2 1 1-3 2v1l-4 2-4-1-3-1h-3l-2 3 5 4 1 1-1 2 1 1 1 4 2 2 1 2h-5l-2 1-2-1-1 1-3 2-1 2-1 4 2 4-1 1-3-1v-1l-3-1h-8l-2 1h-1l-3-4-4 2-1 1h-1l-1-2-6-1-2 1h-2l-2 2-1-2-1-1-3 1-1-1-3-2h-2l-7-1-8-2h-14l-7 1-1 1-2 2-2 2-1-1h-3v2l-1-2-1-1 1-2v-4l-1-1-2-1-4-2v-1l3-3 1-1 4-2 1-2-1-4-2-4-3-6-3-6 3 1 2-1h5l1 1 4-2 2 1 1-3h2l2-2h2l2-1 2 3 2-1v-1l-1-1-2-1v-2l1-2v-2l1-4h3l1-1 1-2h4l1-1 1-2-4-1 1-3v-2l3-1 1-2h8l1-2 3-2 1-1h2Z"/><path fill="#22252A" d="m438 551 1 1 3 2h1l1 1-1 3v4h1l4 1v1l2 1h3l2-2 1 1 1 1-1 4 1 2h-3l-1-1h-1l-1 2 2 4h-2l-1-2h-1l-3 1-3-1-1-2h-2v5l-3 3v1l1 2-2 1-1-2-1-1v-2h-2l-3-3v-3h-2l-3 3v2l-2 2-2 2-4-1-3 1-3 1-1-1-1-2-3-2 1-2-1-3h-5l-3 2 1 1-3 2h-1v-1l1-1 1-2-1-1 1-3 4-3v-3l3-1 4-5 1-1-2-1 2-2h1l1 1h3l1-2h6l4-1 3 1v-2l1-2h2l2 2 1-1 1 1h4Zm74-56h3v-2l4 1v1l1 1 5 1 3 2 1 1 4-1 2 1-1 2-2 1 2 1 3 2 1 2 1 1 4-3-1-3h1l3 1 3 2 4-1v2h-1l3 3 1 1 2-1 4 2 1-1 3 1v2l4 3v2h-3l-2 2-1 1-3 1v4l-2 1-3 2-1 1h-2l-4-1-2 2-1 3-1-2-6-2-2 1h-4l-4-2h-1l-6-2-1 1-2-1h-2v4h-1l-2 2v1l-3-1-1 1h-5l-1-2-2-1-1-1-3-3h-2l-1-1-3-2-4-3h-1l-3-2-2-3-1-2 1-2-1-2-2-1-3-4v-1l3 2 2-3 1-1h5l1-1 3-1v-1l2-1 1 1 1-2 5-1 4-2h2l-1-2 1-1 2 1 2 1v1l1 1 1-1Z"/><path fill="#22252A" d="M500 443h-4v-2l-2-1v-1l6 3v1Zm-40-9h-2l-2-1 1-1h2l1 2Zm32 1h-3l-1 2-3-1v-4l1-2 2-1 1 2h2l-1 2 2 2Zm-53-8 2 1 2 2v1l-2 2h4v1h2l6 2 3-1 1 1-1 2-2 2 1 1h3l4 1 4-3h1l4-1 6-5 6 1 2 2 4 3 4-1 1 3 1 3 2 1 4 1v3l3 4-1 3-2 3-1 1 2 2 4 2 1 2v3l2 3 1 2-1 3-1 1 2 4v2l3 1 2 4-1 2-2 4-1 1-1-1v-1l-2-1-2-1-1 1 1 2h-2l-4 2-5 1-1 2-1-1-2 1v1l-3 1-1 1h-5l-1 1-2 3-3-2v1l3 4 2 1 1 2-1 2 1 2 2 3 3 2h1l4 3 3 2 1 1h2l3 3 1 1-1 3-1 1-3-1-1 3-1 2h-3l-4 3v1l3 3v2l-1 1 2 1v3h-2l-1-1-1-1-1-1-3 1-1-1-3-1v2l-6 1-5 1-1 1-4 1-2-2-3-1h-3l-1 3-1 1-2 1 1-1-2-1-1-1-4-2h-1l-2-1-6-3 1 2h-4l-1-1-1 1-2-2h-2l-1 2v2l-3-1-4 1h-4l-1-2v-2l1-2-1-3 1-1 1-3 1-6 4-4v-2h-2l-5-1-2-2-4 1h-2l-1-1-1-1-2 1-4-5h-2l1-4 1-1v-1l-3-1-2-2v-5l3-1-1-3h-2l1-2-3-3v-3l-2-1 1-1 2-2-1-1 2-3v-2l-4-4 1-2h2l3 1 5-2 1-1-1-1v-1l3-2 1-3-1-1h-3l-1-2 1-1h3l1-5 1-2v-5l-2-1 1-3 1-2h1l5-1h5l2 3-1 1 2 1 1-3 2 1h1l-1-2 1-2 1-2 3 1h5v-1l-3-1-2-1v-4l-1-1h-2v-2l4-1v-1l-4-4-1-2h4l6 1 3-1 2 1Z"/><path fill="#22252A" d="m460 426 3 1h2l1 2-4 1-6-2v-3h3l1 1Zm16-1h-3l-2 1v-2l2-1 1 1 2 1Zm-33 1h-3l-1-3 3 1 1 2Zm9 2-1-2 2-3h1l-2 5Zm58-4-3-1-3-1v-2l1-1 5 3v2Zm-60-10 3 5-1 3-2 1h-2l-6-2-2-3v-3l5-1 3 1 2-1Zm27 0-2 1v-1l1-2 1 2Zm-28-3h-1v-4l2 2-1 2Zm26 0v1l-1 1-2 1-1 2 2 1 1 2-1 1-3 1v6l-3 1-2-3v-1l-1-3-3-1-2 1-2-3v-2l-1-2-1-1v-2h4l1-2v-1h2l1 1 1 3h1l2-3-1-1 4-3h1l4 1-1 2 1 3Zm-36 16-2-1-3 1-6-1h-4v-3l-1-1 1-1-1-4-3-2-3-1v-7l-1-2v-8h2l3 1 2 1 1-3 2-1 2-1 2 1v-5l-2-1-1 1-2 2-1 3h-2l-2 1-3-2v-1l2-3 3-2h8l4-2 3-4 2-2h3l4-2-1 3 1 2v3l-1 1-1 3v7l3 1h4l2 2-1 2-3 2h-1l-2-2-1 1-1 6h-3l-1 1 1 1-1 1-4 4 1 3v2l-2 1v1l2 1 2 3Zm161-64h5l5 2-3 1-4 3v1l-3-1-2 1-1 1-1 3h-2v-1l2-2-2-1-2-1 1-2-2-2h5l1-1 3-1Zm10 1h-1l-3-1 1-1 3 1v1Zm-6-4h-2l-1 1-2 1-2-3-3-1h-2l5-1 2-2h1l1 1 2 1 1 1v2Zm61 21h-2l-4-1-5 1-3-1-4-3-1-1-2-1-7-2h-1l-2-1-9 3 1-3v-5h-3l-1 1-1 1-5-2-1-2-2-1-1-2v-2l-2-2 1-1-1-4 4-1h3l1-2 3-1h2l4-1h7l1-2h3l9 1h2l3 2h6l8 1 1-1 2 1-1 2h-2l-1 4-1 1h-7l-1 2v1l3 3 1 3 3 2 1 2 3 3 2 3-3 1-1 2v2Zm-75-47h2v3l-3-2 1-1Zm-2 0h-2l1-1 1 1Zm-8-3-1 1-1-2 2 1Zm30-72-2 1-1-1-1-1h3l1 1Zm34-63-4 2 2 1 1 1-2 4v1l3 4 8 2 3 2 4 3 2 1v2l-3 3-3 4-1 2v2l3 2 3 3 3 4 4 3 3 5 1 1-5 1 2 1-1 2v3l2 1v1l-2 1v1l2 2 1 1 4 1 1 2-1 2 2 2 5 2 1 2v2l-3 3-2 1 1 1 5 3 7 3 3 2 3 2 2 2 1 1-2 5-1 1-2 3-4 3-3 3-6 7-2 1-3 3-5 4-1 1-3 1-6 6-4 1-3-1h-2l-2 1-3 1h-2l-1-1-1 1h-2l-2-1v2l-4 2-1-1-2 1h-2l-2 1-6 1-2 2-2-1-7 2-4-1-3 3h-2l2-3-3-2-1-1h-1v2l-2 1h-2l-1-3 1-3-4-1-4-1h-1l-1-2-2 1-3-1-2-6v-1l1-2v-4l-1-2 2-1-1-2-3-3-2-2 1-3-1-2-2-2-1-3v-3l3-2v-2l1-1v-1l3-1 1 1 3-1 2-1-1-2 1-1 2-1v-1l2-1 3-2 3-1 2-3h1l1-1 3-2 1-2 2-2 3-5 4-1h4v-2h1l-1-2h-1v-6l-1-1-6-1-1-1-2-1-5-1-2-3-2-2-2-1-2-3v-1l2-2v-2l1-1-1-1-4-3-1-2v-2l2-1-1-1h-3v-3l-1-1v-3l1-1-2-1-2-2h-2l-1-2-4-2-10-2-5-2-5-3-3-1-1-1-3-1h5l-1-2 3-1h4l9 6 1 2 8 1h3l4-1 2-1h2l4 1 4 1 3 1 2-1v-2l2-1 3-1 1-1-1-4 1-2 1-4 3-2 2-2h8l4-2h3l2 1 5 2 5 2 4 1 3 3-1 1-4 3v1l2 1ZM294 498l-1 2h-2l-3-1v-1l3-1h2l1 1Zm-41-45 1 1-4 2-1-1-1-1v-2l1-1h2l2 2Zm-27-13h-6v-2h-1l-3-3-1-1-2 2v1l-2 2h-4l-1-1-2-1v-1l-3-2 1-2 3-1-1-1v-1h2l3-1 1-2 1-2 2-2 2 1 2-2h3l3-1h5l1 2 1 2 1 1 2 2v1l-2 1 4 1 1 3h-2v2h1l-1 1-3 1-1 3h-4Zm15-24h-2l-1-2 1-2 2 1 1 1-1 2Zm-13-8 1 4-3 2-1-3-1 1v-2l2-1 2-1Zm2 2-1-1 2-3 2-1v2l-3 3Zm3-9-5 1 1-3-3-1 1-1 2-1 2 2 2 1v2Zm-18-13h-2l-1-2 1-2h1l1 4Zm14-6v3l3 1h3l-4 3-1-2h-3l-2-2-3-1-1-1 2-1v-1l3-1 2-1 1 1v2Zm-13-3 1 1-1 1h-2l-3-1 1-1h4Zm13-12-2 3-1 1v2l-4 2-3 3-2-2 3-2-2-1-1-3h5l-1-1 8-4v2Zm40-2v1l-1 2-3 1-5 4-3 1v2h1l1 1-3 2-1 1h4l6-2 4 1 3-1 8 1 2-1 3 2 1 2-3 4-1 2-2 4-3 3-2 3-2 1h-4l5 3-1 2h-3l-3 2-2 1 4 1 3-1h3l6 2 4 4 2 1 1 2 2 8 2 4 2 2 5 2h1l4 4 4 3-2 2 1 1 2 3 1 2h-2l-3-1 6 4 2 2 1 4-1 1-3 3 3 2 1-1 3-2h6l5 1 4 3v1l1 3-3 7-3 2-1 2-2 1h-2l-3 1 2 1v2l-1 1h-3l1 2 3 1 5-1 2 1v3l-5 2-1 2h-2l-2 1-6 2-6-1h-3l-5 1-4-1-3-1-3 2-5 1h-2l1 1-1 1-4-1-1 1h-2l-3-2h-3l-6 1-1 2-1 4-2 1h-1l-5-3-2 1h-3l-3 1-5 3-1 2h-1l-1-1h-5v-1l1-1 3-1 3-2 3-3 5-4 1-4 3-1 2-2 4-1h11l3-3 4-4-6 1-4 3h-4l-2-3h-5l-1-1-3-2h-3l-4 2-3-1-1-3 1-2h1l3-1 4-2 3-1 3-2 1-3v-4l-1-2 1-1h-4l-3 1-1-1 4-2 1-2 3-1 4-2h2l4-1 3 2-1-3h2v-3l2-2-2-1v-2l2-1 1-3-2-1-2 1-2-2-4-4v-2l2-3 3-2-3-1h-1l-3 1-3 2h-2l-1-1h-1l-3 1-4-1-1 2-3-3-1-2h2l1-3 4-4v-3l-3-2 1-3 1-1h1l-2-2-3 1-2 1v-3l-2 2v4l-2 6-2 1h-1l1-5 2-2-1-1v-4l1-3 2-5 3-4-5 3-1 1h-3l-1-1-1-3h2l2-1-2-1 2-1 2-3 1-2-2-2h-1l-1-1 2-2-1-2 2-4h6l-3-2 1-4h4l-1-2 1-2 2-1h1l1 1 3-1 1 1 3-1h4l6-1h5l-1 2Zm-1-5h-1l-2-1 2-1 1 2Zm2-4 3 1-1 1h-4l-2-1 1-3h2l1 1v1Zm4-2h-1v-1l-2-1v-1l3 3Zm19-23 1 2 2 1-2 4v2l-1 2-1-1 1-3-1-1h-2v-1l2-1-1-3h-1l1-2 2 1Zm3 1-2-2 2-1v3Zm669 332-3 1 1 1h-9l-6 1-5 1-2-2h-2l-1-2-4-3h-1l-1-2h-2l-1 1-1 2-4-1h-4l-2 1-5-2 3-3v-5l-2-3-5-9-1-1-5-2-1-2-3-2-5-1-6-4-3-2 1-2h1l5 1 2-1 7 3 4 1 4 2h12l2 1h3l4 1 1 2 4 2 3 1 4 1v3l3 1 5-3 3-1 2 1 2 2 1-3 5 2 2 2h4l2 1v5l3 2 2 1 4 1 4 2-2 2h-1v2l1 1 1 1 5 3 1 1v3l-2 1-5-2-2 1-3-1-2-2-4-2h-3l-3 2ZM666 768h3l2-1 2 4h2l4-1h5l1 1h3l3 1 4-1v4h2l1-1 1-1h4v4h-6l-9 1-7 1v-1l-1-2-4-1-7-2h-5l-2-1v-4h2v-2l2 2Zm50 1-2-2 2-1 1 3h-1Zm-63-13h-1l-1-2 1-2 2 3-1 1Zm72 5-2-1 1-2-1-2 3-3 3-1 1 1-1 3-1 1 1 1h-2l-2 3Zm-21-12-2 1-1-1 2-1 1 1Zm7-3v-1l1-1 3-1 1 1-2 1h-2l-1 1Zm-26-6-1 2-1-1v-2h1l1 1Zm4 2-1 1-2-3 3-2 1 1v2l-1 1Zm7-10v-2h2v1l-2 1Zm-25-1h-2l1-2 1 1v1Zm36-4 3 1-1 1-2 1-1-1-2-2h3Zm-88 0v1l-1 1-2-1-1-2 1-1 1 1 2 1Zm61 1h-2l-3-3 1-1 2 1h1l1 3Zm-66-11v2h1l2 2v1l-3-1h-1l-1-2h-2l1-2h3Zm81 2-1 1-2-2 2-1-3-3v-1h2l2 1 1 1v3l-1 1Zm-80-7-2 1v-2l1-2h1v3Zm39-6 1 2 7 3h3l2 3v1l1 4 2 1 3 1v2l-1 1-2-1-2-2-1-1-2-4h-4l-2-1-1-2-2-1-2-2-2-1-3-1-1-1 2-2h3l1 1Zm44-6v1l2 1 1 1-2 3-4-1-1-1 2-1-1-1-2 2-2-1-1-1 1-2h1l2-1 3-1 1 2Zm-93-2h-2l-1-1-2-2-2-3 1-1h1l2 1-1 1 1 1 1 3 2 1Zm77-10v3l-5-1v-3h2l1 1 1-1 1 1Zm3-8h-1l-2-1 1-1 2 2Zm-13-4-2 1-2-1 1-3h1l2 2v1Zm18-2h-1l-2-2h-5l-3-1h-1l-2-1h-2l-3 2h-1l-2-1h-3l-2 2-2 1h-5v1l3 3-1 1 1 1h2l3 2h-1l-4-1h-1l-1 1 4 3v3l-2-1-3-4h-4l1 3 4 2-1 1-4-1-1-2v-2l-7-4-1-3-3 2 1 2-1 4 1 2 4 4 1 3 3 3 3 3 1 2-2 2-1-1v-2l-2-2-3 2 2 2 1 2-1 1-2 1h-3l3 2 4 1 2 1h2l2 3 3 1 1 2 3 1h2l1 3v3l1 3v2h-1l-2-2-5-4h-1l-1 1h-3l-2 2 1 1v1l1 2 3 1 2 2-3 2h-3v-2l-5-2v3l2 2 2 5 2 4v3l1 1v2l-2-1-3-3-1-2h-2l-2 4 1 2-2-1v-3l-3-3-1-1-1-2-2 1v3l-1 1-2-2-3-4v-2l2-2-1-2-2-2-2-2-1-1-1-2-3-1v-1l3-2 1-3h4l2-3 2 1 4 2 5 1 3 1 1 2h2l-1-2h4v-2h-3l-3-2-3-1-2-2-2 2h-1l-4-1-2 1-5 1-2-2-3 1-1-1-2-4-2-3h-1v-2l1-1 3 1h1l-1-2h-5l-3-2-1-2-3-1-2-4-3-3 3 1 1-1v-2l1-1-1-2 2-2h2l1-1v-2l2-3 2-1 1-3-2-2v-2h6l1-1 2 1 3-2 2-2 1-1h7l4-1v-2h6l1-1 2-1 3 1 4-2h2v-1h7l1 2 3 1h1l4 1 2 1 4-1h6l3-1v-1l-1-3-1-2 2-1 2 1h1l3 2 1 3-4 3 1 5-3 4h-1Zm-140-40h2l-1 1-1-1Zm14 2h2l1 1 7 4 2 1 1 2-5-4-5-3h-4l-5-3v-1l6 3Zm-7-4h-7l-2-1-1-1h2l1 1 7 1Zm-6-3h-2l-3-1v-1l6 1-1 1Zm-24-19-1 1-3-4-1-2 3 3 2 2Zm-6-7-2-1 1-1 1 2Zm-5 1h-1l-2-5 1-1-1-2 1-1v3l2 1-1 2 1 3Zm5-5h-2l-1-1h-2l-1-2h1l1-2 4 5Zm56-17v2l1 3 1 1 1 1v2l1 1 3 2 2 1h-3l-2 1 1 3-1 2-3-1-1-2-2-1h-2l-3-1h-4l-3 1-2-2-2 1-3-1h-3l-3-2-2 2-3-1-3 4-2-1-2-2-2-1-2 1v7l2 2 4 4 2 4 2 3 3 3 2 2 6 5 3 1v2l2 2 3 3v2l-4-3-3-2-3-3-5-1-3-2-4 1h-2l-1-3-6-4-5-5-1-1 3-2-1-1-5-4-1-2v-4l-1-2-3-3-2-1-2-1-2 1v2l-3 6h-2l-3-5-1-2-2-4 1-1 1 1 4 1 1-2 1 1h5v-1l2-2 3 2 1 1 2-1 2 1 2 1 1-1-1-3h1l-1-2 3-1h2v-4l-1-1 1-2 5-2v-1h3v-2l1-1 3 1 3 1 2 2 1 1 3 2 3 3h1l3 1 1 2 4 1h6l3-1 1-2h3Z"/><path fill="#22252A" d="M618 538h2l2 3 2 1 1 1h3l1 1 1 2-3 3-5 1-2 3-2 1v2l-1 2-1 2-2 2v2l-1 3v1l-3 2-1 5-2 1h-3l-3 2h-1l-4 1-1-1h-9l-2 2-2 1-2-1-3 2h-3l-1 2-3 1h-6l-4-1-1-2-3-1h-1l-3-3-3-2-1-1-2-2-3-1-3-3-1-4h-3l2-2h3v-2l-1-2 1-1-1-2 3-1v-3l-3-1 1-1 3 1 5-1-1-2 1-2v-1h3l4 4h2l6 1 8-1v-4l2-1h5l3-1 1-1 1-1 4 2 5-3 2-4h13l2 1 3 2 5-1Zm-392-98 1 1h-3l2 6v6l1 4 1 3-2 2-1 2v2l-2 3-2 1 2 1-3 1h-3l-2 1h-4l-4 1-2 2-3 1-1 1-3 1-2-2-1 1v2l-3 2h-2l-1 1-7 1h-2l-4 1h-1l1-3 2-1-4 1h-2l3-3h-7v-1l3-3 3-1v-1h-6v-1l2-1h4l1-1v-1l4-3h4l3-1 4-1-3-2-2 3h-3l-2-1h-3l3-2 2-2-1-1 2-2 5-2-2-1h-5l-1-1h-3v-2h-4l1-1-1-1 3-1v-2l2-1 3-1v-1h-5l1-2-1-1v-2l-1-1 3-1h7l2 2 2-2 5 1 1-3 4-2 2-2-5 1-4-2h1l2-1 3-2-1-1 2-3 4-1h3l1-1 2 2-1 1v1l2-1-1-2 1-2h2l1-1 4 2-3 2h-1l-2 2-1 2-1 2-3 1h-2v1l1 1-3 1-1 2 3 2v1l2 1 1 1h4l2-2v-1l2-2 1 1 3 3h1v2h6ZM124 240h1l3-1 3-1v1l-3 3 3 1h2v2l-2 2h5l1 2h5l1 2 2-1v1l-1 2h-1l2 4v1l-1 1h-2l-1 2-1 1-2 2-3-1-2 2 1 1-2 2-6 2h-3l-3 1-7 2-5 3-3 1-3 1h-2l-7 1-2 1-2 1v1l-5 2-4 1-8-1-6-2h-5l-4-3-4-1-4-2-2 1-15 1-1-1v-2l1-1 2 1 6-1 3-2 3-3-4 1-1-2-1-2h-2v-1l1-1-2-2H26l-4 1h-3l-1-1v-1l2-1h7l2-1v1l5-2 1 1 4-1h5l2-1v-1l-3 1-4-1-1-1 4-1 3-1-1-2h-4l-3-1h-3l-3 1-6 1-4 1-3-2h-3l1-2h3l2 1v-3h1l3 1v-3h2l-2-2v-1h2l1-1h3l2 1 1 2h2l1-1h1l1 2h1l1-3-4-1-1-2h4l-1-1h-6l3-2h4l2 1 3 1 2 1 3 3 3 1v1l1 1-3 4 1 1-1 2h2l2 2 1-2 1-2 3-1h1l1 1h1l2-2 1-5 1-1h3l1 2 3 3 2-1v-2l1-2h3l2-1h3l2 1 1 2 2 1 1 2h1v-2l-2-3v-1h5l4 3 1-1 4-3 3 1h2l3-1 1-1-1-3h1l3-1h3l3 3v1l2 1Zm416 479-2 3-3 5-2 6 1 2 2 2-1 1 2 2v1l-2 2-1 2v2l-3-1-2 1-4-2-2-3-4-3h-5l-3-2-3-2-3-2-2-1-2-1h-3l-3-2-1-2 1-5 2-1 1-1 2 3 2-1 2-2h3v1h2l3 2 1 1 4-1h4l3-1h2l1-1 2-1 4 1 2-2 1 1 2-2 2 1Zm-90-47 1 1 2 6-1 1-2 3 1 3v13l-1 3-1 1-3-2-2 1-1-1-1 4-2 2h-3l-1-1-3-4v-10h2v-2l-2-1v-7l-1-1-1-2-2-3v-4l4 1 1-1 4-2 2-2 2-1 2-2v1l3 1 1 2h1v2l1 1Zm9-36 1 2-3 1-2-2h4v-1Zm44-65v1l-4 3 1 2h2l-2 3 1 1h1v3l2 1 2 1v2h-2l1-1-2-2-3 1-3-1-3 2h-1l-2 2-4 1h-3l-1 4 1 1 2 3 2 1-1 2-1 1-1-1-1 2 1 5 2 4 1 2 3 2 3 1 6 5 4 1v1l2 3 2 4 2 5 2 3 2 4 6 4 5 4 4 2h12l3 1v2l-3 2v2l1 2 8 3 9 3 2 2 3 2 8 4 1 1 5 4 2 3v2l-1 5-2-1-3-1-3-7h-6l-3-2-1-1-3-1-1 1-2 3-1 3-2 5v2l1 2 3 1 3 2 2 2v4l1 2-1 2h-5l-2 2v7l-4 3-2 3-1 2h-5l-1-1v-4l2-1 1-3v-3l1-1 3-1v-4l-1-1-2-6-3-5-1-4-2-2-1-1-5-1-5-3v-1l1-1-2-4-2-1h-4v-2l-3-1h-3l-1-1-3-5-2-2h-2l-5-1-2 1-4-3-3-1-6-6-3-2-4-3-2-3-2-2-5-1v-2l-4-3-2-2-1-2-3-1v-3l-1-4-2-2-2-6-1-2-2-1-4-2-7-4h-1l-4-1h-2l-3 1-4 4-3 4h-1l-4 2h-3v-2l2-3v-2l-4 1-6-3-1-1v-2l-1-1 2-3 1-1-1-2-4-1-1-4h3l2-2h1l1-3-2-2-2-3h-1v-2l3-2 1 1 3-1 3-1 4 1 2-2 2-2v-2l3-3h2v3l3 3h2v2l1 1 1 2 2-1-1-2v-1l3-3v-5h2l1 2 3 1 3-1h1l1 2h2l-2-4 1-2h1l1 1h3l-1-2 1-4 3 1 1 1h4l1-3 2-1h7l6-2v3l3 4 1 1 10 1 5 1h3Zm-59-9h-1v-4l1 3v1Zm217-149v2l-1 3 4 1-1 2-1 1h-4l-1 2-1 1h-3l-1 4v2l-1 2v2l2 1 1 1v1l-2 1-2-3-2 1h-2l-2 2h-2l-1 3-2-1-4 2-1-1h-5l-2 1-3-1-1-3-1-1-5-3-3-1-1 1-1-2v-3l1-3-1-2h-2l-1-2h-7l-2-1-5-1-2-2h-2l-1-1v-2l-1-2-2-4-1-4 4-2 4-2 5-2 7 1h5l1 1 2-1h8l4 1h6l2-1 2-1 3 4 7 1h1l6 4 3 2 2 1 3 1Zm-267 95v3l2 2 3 1v1l-1 1-1 4-1-1-3 1h-1l-3-2 2-2-3-2 1-2 1-3 2-2 2 1Z"/><path fill="#22252A" d="m665 381 2 1 1 1 3 2 1 2-1 2v4l2-1 1 1v1l2 3 2 1 2 5v2h-2l-1 1-3 2-1 2h-8l-1 2-3 1-3-1-2-1-3-2-6-4h-1l-7-1-3-4-2 1-2 1h-6l-4-1h-8l-2 1-1-1h-5l-7-1-5 2-4 2-4 2v-3l-1-7v-3l2-2 1-1 1-5 3-4 2-1 4-1 4-1 2 2 5 4 2 1 2 4 5 2 4-1 4-3 1-1v-1l-1-6-2-2 1-2 9-3 2 1h1l7 2 2 1 1 1 4 3 3 1 5-1 4 1h2Zm46 209-3-2 1-1-1-6v-3l1-5-1-4-2-2-1-4-4-2-1-2-2-2-3-4-2-1-4-6-2-3-3-2h-3l1-1 2-2 1 1h5l1-1h1l2-1 4 1 4 3h3v2h7l1 2 2 2 2-1 1 1 1 3-1 4 1 1 3 1 3 3v2l1 3 2 1 3 1 1 2v3l3 2v1h-4l-1-1-2 1-2-1-2-1-3-1-3 2 1 2 1 2v3l-3 2v1l-3 3 1 2-1 1h-2l-1 1Zm-78 56 4 4 4 2 2 4 1 1-1 2v5h-2v2l-4 1h-7l-1 1-2 2-3 2-2-1-1 1h-6l-1-1h-2l-1-2-2-2-1-2v-2l-1-3 1-1-1-2 1-3h2v-1l1-3 4-1h1l2 1 1-2 3-1h2l3-1h2l2-1 2 1Zm-48-22 1 2 3 2 2 2 3 2h3l6 4v1h-2v1l-2 1 1 1v2l-4 1-1-2-2-1-3 7h-4l2 2 2 1v4l-2-1-1-2-4-4-4-2v-1h-2l-1-2 1-1v-1l-1-2-1-4h1l2-1v-3l3-2h2l-1-3 3-1ZM374 335v2h-1l-1-1v-3l2 2Zm-2-13h-3l1-1 1-1 1 2Zm37-36-3-1-1-1 3-1 1 1v2Zm4-6v-1h3l1 1h-4Zm32-19-5 1v-2l2-1h2l1 2Zm8-12h-2v-1h2v1Zm5-6v-2l1-1h1v2l-2 1Zm3-29-1 1 1-3 1-1v2l-1 1Zm10-6h3l-1 1-2 1h-1l-2 1-2 1h-2v-1l1-1h1l1-2h4Zm14-10 3 2-1 2-1 1h-4l-2-1h-2l-2-1 2-1h3v-2h2l1-1 1 1Zm7 5 2-1h2v-3h2l2 1 1 1v1l-3 2-3 2h-2l-1 1h-3l-2-1-1 1-1 1-2-1-3 2h-3l-1-1 3-2 6-1 3-2 1-3v-1l-1-1v-2l3-2 1-1 2-1 1 1-1 2-2 1 1 2 1 3-2 2Zm18-15 2 1 2-1 2 1 1 2-1 1v2h-5l-2 1-1 1h-3v-5h4v-2l1-1Zm143-3h-2v-2l2 2Zm-106-5-2 1-2-1-1-1 3-1 2 1v1Zm-18 1h3l1 1-1 1-1 1h-2l-4 3v1l-6 1-1-1 2-3h2l1-1v-1l3-2 1-2 1-1 1 3Zm6-3 1 1 2 1h-3l-2-2h2Zm43-5v2l-4 2h-1l-3-1v-1l2-1h1l4-2 1 1Zm4 0-2 1-2-1v-2l1-1 3 2v1Zm-7-4-1 1-3 3-2 1-2-1-1 1h-3l-2-1-2-1h4v-1h7l2-2h3Zm69 27-2-1v-1l4-3 1-1-3-3-4-1-5-2-5-2-2-1h-3l-4 2h-8l-2 2-3 2-1 4-1 2 1 4-1 1-3 1-2 1v2l-2 1-3-1-4-1-4-1h-2l-2 1-4 1h-3l-8-1-1-2-9-6h-4l-3 1 1 2h-11l3 2v3l-2 2-1 1 3 1-3 2h-1l-10-2-3-1-5-1-2 1v5l-2 4-7-2-2 1-4 2-2 4-1 1-3 1-1 1 3 3 1 1v2l-2 1-3 3-4 4-1 1 1 2-4 2-3 1h-4l2 5-1 3v5l-4 6-5 6 5 2 2 3v1l-2 3-8-1h-4l-4 2-4 4-1 1v2l-2 3 3 5-1 1v6l3 5v2l-1 7 4 2 2 1 4 3-1 2-1 3h-3l-2 1v1l4 6v7l-3 3h-1l-3 1-1 3-2 2 2 5-1 4v2h-3l-1-2v-1l-7-1-3-4v-3l-3 1 1 1v3l-3 4h-2l-1 1h-1l-1-1h-1l-1 2-4 1 1 1-2 1-1 1-3 2-5 4-2 2-2 1h-2l-2 1-5 1h-6l-1-1v-1h-2l-1 1h-2l1-3h-3l-5-2-1-1-3-1-2-2-1-2v-4l1-1 3 1 3 2v-2l-2-1 1-2-1-2 3-3-4 2-4 1-1 1-1 1h-3v-5l2-3 2-1 4 1 1-2h1l3-1h-5l-1-1 3-2 2-2v-2l3-2 2-1 1 1 2-2-6 1-2 1-3 4v1l-2 1-2 2-1 1-3 2-2 1v-3l2-3-1-1h4l2-2h-5l-1-2-1-2 1-2-2-3-1-2v-3l1-1 3 1h2l6-1h6l2-1h2l3 2 1-1 6-1-4-2 1 2h-5l-3-1h-2v1h-11l-2 1h-2l-3-2-1-1v-3h3l-2-3-2-1-1-2 1-1h6l7 2 6-1h-4l-9-2h-4v-3l1-1 2 1 2-3 2-1 2-1 3 2h1l5-1-2-1-4 1v-1l3-3h5l6 1h3l1-2 6-1-8 1-2-1-6 1v-2l3-2 4-1 3-2h3l3 1 1 1 6 2-6-5 1-2h4v-2h-3v-2l2-1h4l3 1v1l1 1 2-2 4-1 3 2 1 2 1-1 3-1 3 1h2l-1-2 1-1 2-1 2-1 3-1-1-1h-1l3-2-2-1-3 1-1 1 1 1-1 2-7 3-3 1h-2l-2-3h-3l2-3 2-1 1-2 3-2 4-4 3-1 1-1 3-2 4-1v-1l-3 1 1-2 1-2 8-3 2 2 2-1 3-1-1-1-2 1h-2v-1h-3v-2l2-3 4-4v-1l2-1h2l-1-1-2-1 7-2h3l3-1 1-1-8 1-2 1-1-3v-2l2-3h2l2-1v-2l3-1 2-2 3-1h5l7-1-7-1-4 1v-1l3-3 2-1h2l2 1 1-1-2-2 1-1-3 1h-2l-1-2 2-2h3v-2l4-1 2-1h3l1 3h1l2-1-2-1-1-2 2-2h3l3 1 2-1 1-1h-7l-1-1 2-1 2-1 3-1 3-1 1-1v-2l2-2 4-1v-2l1-2h1l2 1 2 1v-3h2l2-1v-1l1-2h6v2l1 2 1-3 2-3 3-1 1 2-1 5-2 2h2l3-3v-5h7v-1l2-1 2 2 5 1-1-2-2-1-2-1-3-1 2-1h3l2-1h2l2 1 1-1 2-1 4 1 2 3 2 2v-2l1-2 3-2 2-2h2l3-4-2-1 4-2h1l6 2 2-1 4 1-1 1-4 3v4l-2 1 1 2h2l2-2v-1l5-5 2-2 3-2h2l1 1v7l4-2 1-4h2l-1-2v-1l3-2 2 1h4l3 1v3l-4 1 1 1 2-1 1 6 1-2 1-1 1-2 1-2 2-1h3l3 2h3l2 1 3-1 2 1 1 1 4 1 4 2 1 1-5 2-2 1h-4l-13-1v1l10 2 1 1v2l2 1h4v-2l4 1h4l1 2v2h-3l-5-2v3l-1 1-7 1-1 3-3 1Zm-46-31h4l3 2h-7l-2-2h2Zm-390 4v-1l5-2 2-1 4-1v2l-4 1-4 1-3 1Zm309-52-1 1-2-1-1-1h3l1 1Zm11-57h4l3 2 1 3h2l5-1 4 1-1 1v2l6 1h5l8 2-8 1-2 2-4 2h-3l-3 1h-2l-2-2 2-1-3-1-2 1-12 1h-1l-1-2h3l1-2 2-2-6-2-2-2-1-1-3-1v-1h-2v-1l12-1Zm53-1h-1l-3-1v-1l4 2Zm-158 1 4 1 2 1 3 2-1 1-2-2-4-1h-3l-4-3-2-1v-2l4 1 1 1v1l2 1Zm179-4h3v1l-9-1-4 1v-1l3-1h4l3 1ZM475 43h2l6 1 3 1 2 1-3 2 2 1 4-2h3l2 1 1 2v1l4 2 4-1 2 1 2 1h2v-1h3l4 1-3 1 3 1 4 1h2l-2 2h-7l-6 1-3 1-3 2-1 2 1 2h-5v5l-1 2h-4l-2 2-1 2-3 2 1 1-2 3 1 2h-1l-2 1-3-1-2-1-8-2-5-3-7-2-4-1-1-2v-2h3l4 1 1-2 13-1 9-1-2-1-8 1-5-1h-3l-2 1-5 1h-5l-4-2-1-2h6l7-1 3-1h4l-1-1 3-1h9v-1h-3l-1-1 3-2h-3l-3 2h-7l-2-1 1-2-1-1-2 2h-2l-2-1-3 1 1 1-1 1 3 1-3 1-2 1h-10l-5-1-3-2-2-1-3-1-2-1v-1l-2-1-1-1h5l-2-2 1-2h-4l1 1-3 1h-1l-3-2-3-3 1-1-2-2h2l3 1 1-1 4-1 5 2 1-2 5 1 3-1h8l-1 2h-7l-5 1h8l1 2h3l3 1h1l-1-3 5-2h2l3 1 4 4 3 2 7 3-1-2-5-5-1-2 1-2h2l-1-2 2-1 2 1 3 1Zm155-2h-10l18-2 2 1-10 1Zm-136-3-2 1h-4l1-1h5Zm21 1h6l2 1 6 1 1-1v-3h2l2-1 3 1 1 1-1 2h6l2-2h6l9 1 4 1h10l3 1 2 2-1 1-8 2-2 1-3 3h-8l-4 1-2 1h-12l-3-2 2-1-10 1h-10l-2-1-6-1-5-1h8l-1-2h-17l-4-1-1-1h3l3-1-6-1h-2v-1h6l6 1-1-3 5 1v-1l-2-1 2-1 5 1 6 2Zm98 396 1-1 3 1 5 3 1 1 1 3 3 6 3 6 2 4 1 4-1 2-4 2-1 1-3 3v1l4 2 2 1 1 1v4l-1 2 1 1 1 2 1 2v1l3 4 2 3 2 1-1 2 2 3v1l-2 2-3 1-6 5-2 3-4 5-1 1 2 5v2l2 1-1 1h-3l-1-1-7-2-1-1-1-1-4-1-4-1h-3l-2 2h-2l-3-1h-3l-3 1-1 3-2-1h-2v-3h-2l-3-4-3 2-1 2h-3v-2h-2v-2l-4-3v-2l-3-1-1 1-4-2-2 1-1-1-3-3h1v-2l-4 1-3-2-3-1h-1l1 3-4 3-1-1-1-2-3-2-2-1 2-1 1-2-2-1-4 1-1-1-3-2-5-1-1-1v-1l-4-1v2h-3l2-4 1-2-2-4-3-1v-2l-2-4 1-1 1-3-1-2-2-3v-3l-1-2-4-2-2-2 1-1 2-3 1-3-3-4v-3l3 1 1-1v-2l-5-1v-1h2l4-1 8-2 8-2 4-1 2-2 2-2 4-1 2-1 3-1 8-2h6l6 2-1 1-3-2 2 4 2 2 2 1h7l3-2h1l7 1 26 1h8ZM199 738h-1l-6 3h-1l-3-1-5-1h-2l-2 1h-2l-1 1h-1l1-3 2-4v-3l1-3-1-2v-2l1-4v-2l-1-3 3 1-2-2h-2l-2 1h-2v-1l-1-2 3-1 2-2-1-2-1 1-1 2-3 1-2-1v-2l1-2v-3l1-2v-2l2-1 2-2 4-11v-1l2-7 1-3 1-5v-2l-1-3-1-4v-2l-1-2v-1l2-2 1-1 2-2 5-1 1 2-1 3 1 1 3-1h3l3 1h2l2-1 1-2 2 1h6l1 1v3l2 1 2 1 1 1-3 3-3 1-1 2-2 2-2 1 1 3v9l-3 3v1l2 1v3l-2 4h-6l-2 1 2 2 1 1 1 2 1 4h2l1 1-1 3-3 4-2 4 4 5h2l-1 3h-2l-4 5-1 3 1 7Z"/><path fill="#22252A" d="m711 590 1 2 2 1 5 1 1-1h3l2-2h3l2 1 2 2v5l-1 2-7 2 1-1-1-2-1-2-1 2v3l-1 3 1 1-2 2v12h-2l-3-1-3-1-3-3-2 1-1-1h-3l-5-3h-4l-5 2-4 1-3 2-2 2-2 1-2 1h-5l-11-2h-7l-6-1-4-1-5 1-1-2 2-2-4-3-1-2-2-1-1-2 3-2-3-2-2 1-2 2h-2l-1-1-2-1-4-1-1-1-3-1 3-1-3-2 2-2-1-1-3-1-5-2-2-2-1-5h-1l-2-2-3-2-2-2 4-1h1l3-2h3l2-1 1-5 3-2v-1l1-3v-2l2-2 1-2 1-2v-2l2-1 2-3 5-1 3-3 2-1 1-1h1l3 1h3l8 2 4-1 2 1 4 3h3l1-2 4-1 10-2 1-2v-1l4-1h3l3 2 2 3 4 6 2 1 3 4 2 2 1 2 4 2 1 4 2 2 1 4-1 5v3l1 6-1 1 3 2Z"/><path fill="#22252A" d="m596 579 2 2 3 2 2 2h1l1 5 2 2 5 2 3 1 1 1-2 2 3 2-3 1 3 1 1 1 4 1 2 1 1 1h2l2-2 2-1 3 2-3 2 1 2 2 1 1 2-1 1-1 2-2 1-1 3 1 2 3 5 3 2 2 1 2 1-1 2-2 2-1 2h-2l-1 1v3l1 4-1 2h-1l-2-1-2 1h-2l-3 1h-2l-1-1 1-1 2-4v-1l-6-2v-1l-2-2-3-3-3-1-2-2-1 1v3l-2 2v1l-2 1v-1l-6-4h-3l-3-2-2-2-3-2-1-2 1-1 3 1v-3l-3-4v-1h4v-1l-4-3-2-1-1-1v-3l2-3 1-3-2-1-3 1 1-2-1-3 2-1h3l-2-1-3-2-1-1v-2l-1-1-1-1-1-3v-2l3-2 2 1 2-1 2-2h9l1 1Zm27-52-2 3-1 3-2 2v3l-5 1-3-2-2-1h-13l-2 4-5 3-4-2-1 1-1 1-3 1h-5l-2 1v4l-8 1-6-1h-2l-4-4h-3l-2-3-2-4 1-3 1-3 2-2 4 1h2l1-1 3-2 2-1v-4l3-1 1-1 2-2h5v2h3l1-2 3-2 3 4h2v3h2l2 1 1-3 3-1h3l3 1h2l2-2h3l4 1 4 1 1 1 1 1 7 2 1 1Zm-80 45-3-1-1 1v2h-3v1l-5 2-1 2 1 1v4h-2l-3 1 1 2h-1l1 3-1 1-2-1-2-1-2 1-1-1-3-2-2 2v1h-5l-1-1-1 2-4-1-1-1 2-1h2v-2l-2-1-2-1v-3h-1l-1-1 2-3h-2l-1-2 4-3v-1l6 1 5 1 4-1 1-2h2l3-1 3 1 3-2h2l3 1v-3l1-1h3l1 4 3 3Zm-17-170h-1l-1-5 3-5h1l3-8 1 3-2 3-1 3-3 9Zm31-26-2 2h-2l1 4 1 1-1 1-1 2-2 1-2 2v1l-3 1 2-2-1-1-2-3 1-1-1-3 3-4 2-1 3-1h2l2 1Zm42-130-3 1-3-1h-1l-4 1h-4l-2-2-3 2-1-2-2 3 1 2-3-1 1 2-2 1-4 1 1 1-1 1 1 2-2 2-2 2-1 1 2 1 2 3 2 2-1 1-2 1-2 2-3 5-3 2-3 1-4 1-2 3-2-1h-2l-1 2-2 2h-3v1h-3l-1 5h-2l-1 1h-4l2 3-2 2h-1l-2 1-2-1v1l1 2 1 1v2l-1 4 1 3-2 1-1 1v3l1 3 1 4 1 3v2l2 1 2-1 2 2 3-1 1 2 3 2h2l3 2v2l3 1 2 2 1 2v1l-3 2-2 1-4 3h-1l-2 1h4l3-1 1 1-2 1v2l-1 1-3 1-3 1-5 2-1 1-3 1-1 1h-9l1 1h1l4 1 2 1-3 1 2 4-1 1 1 4h-2v1l1 3 1 3v1l-2 3 1 3-2 6-2 4-1 4-2 2-3-1h-11l-1 1 1 1h-3l-2 1-2 3v2l2 3-2 2h-5l-6 1-6-1v-1l1-4-1-2-2-1-3-4-1-3 2 1 1-1-2-2 3-1 1-1-1-1-2-1-2-3-2-1-4-6-2-3h-1l-2-4-2-1v-4l-2-1-2-2v-3l-2-1-1-2v-3l-1-3-1-2 1-2h1l1 1 1 2h3v-2l1-4-2-5 2-2 1-3 3-1h1l3-3v-7l-4-6v-1l2-1h3l1-3 1-2-4-3-2-1-4-2 1-7v-2l-3-5v-6l1-1-3-5 2-3v-2l1-1 4-4 4-2h4l8 1 2-3v-1l-2-3-5-2 5-6 4-6v-5l1-3-2-5h4l3-1 4-2-1-2 1-1 4-4 3-3 2-1v-2l-1-1-3-3 1-1 3-1 1-1 2-4 4-2 2-1 7 2 2-4v-5l2-1 5 1 3 1 10 2h1l3-2-3-1 1-1 2-2v-3l-3-2h6l3 1 1 1 3 1 5 3 5 2 10 2 4 2 1 2h2l2 2 2 1-1 1v3l1 1v3h3l1 1-2 1v2l1 2 4 3 1 1-1 1v2l-2 2v1l2 3 2 1 2 2 2 3Zm91 439-3 1-1-2 3-1 1 2Zm223-25 5 2 2-1h4l4 1 1-2 1-1h2l1 2h1l4 3 1 2h2l2 2 1 1 2 2 2 4v2l-1 2 1 2 2 3-1 1 2 1 4 1h4l2 1 2 2 4 3 1 1-4-2-2 1v5h-4l-1 1 1 2 2 2v2l2 3 1 3 1 2v3l1 1h1v4l-1 2-1 2 2 1 4 2v2l1 1v3l4 2v3l-3-1-4 4-1-2v-2l-2-2h-2l-2 1h-5l-3-1-4-1h-4l-2 2-2 2h-2l-2-3h-1l-1 2-3 1-5 1h-4l-5-1-3 1-4 1-6 3-5 2-4 1h-10l-4-3-4-1-4 2-3 1-4 2h-5l-3-2-4-1v2l-1 4 2 4-4 1v3l-2 2-1 1-2-1h-1l1-2-3-5 1-2 4-4-1-3-2-2-4 2-1 1-1 2-1 1h-2l-3-1-4-2-2-1h-3l-4 3-4 5-1 1-4 2-2 1h-1l-5 1h-3l-2 1-4-1-2-2-2-1-3-4-1-1-4-2-7-3-6-1h-4l-1 1v5l-1 1v3l-1 1-3-1-2 1-4 1h-1l-6-1-3-3-1-2-1-3h-5l-4-2h-2l-2 2-1 1-1-1 1-1h-5l-2 1h-1l-2-1 3-1h4l1-1 1-1 2-2h-13l-1 1v-2l4-2-1-1-5-3v-2l-2-3 2-1v-4l-5-2h-1l-1-1-2-1-1 1-4-2-1-1 1-1 1-2-1-2v-1h2l1 1v3l4 1 4-1-3-1-1-2-2-2 2-2 2-2-3-1v-3l-3-3v-1l3-3-1-1-5 1-2 1h-4v-2l1-1-1-4v-2l2-1 2-3 4-4h4l1-1h3v2l3 1h3l2-1-2-2 2-1 2 1v2l4-1 5 1 2-1h4l-4-2 3-2 7-1 5-1-7-1-1-1-3-1-1-2v-3h4l9 1 6-1 7 2h6l1-1 2-3 8-5 3-2 3-2 6-1 4-2 2-1 12 1h8l3-1h2v3l3 3 4 1 5-1h3l2 5 2 2 2 1h1l2-2h2l3 2 2 1 5 1 5 1 2 2 8 1h2l4-2 8-1 6 2h3l2 1 2-1 6-2 1-2h2l6-4 1-2Zm-197-8v2l1 3 3 3 2 1 9 4h2l-1 4-3 1-7-2h-2l-3 2-3-1-3 1-1 2-2 3-4 2-3 2-4 4-2 2-2 1 1-2v-2l2-2 4-2 1-2-6 1h-4l-1-3h1l3-4-1-5 4-3-1-3-3-2h-1v-2h2l2-3h3l2-1 4-1 4 3 2-1h5Z"/><path fill="#22252A" d="M763 577v1l-5-1-1-1 6 1Zm-31 17-2-2-2-1h-3l-2 2h-3l-1 1-5-1-2-1-1-2 1-1h2l1-1-1-2 3-3v-1l3-2v-3l-1-2-1-2 3-2 3 1 2 1 2 1 2-1 1 1h4v-1l-3-2v-3l-1-2-3-1-2-1-1-3v-2l-3-3-3-1-1-1 1-4-1-3-1-1-2 1-2-2-1-2h-7v-2h-3l-4-3-4-1-2 1h-1l-1 1h-5l-1-1-2 2-1 1-4 1v1l-1 2-10 2-4 1-1 2h-3l-4-3-2-1-4 1-8-2h-3l-3-1h-1l-1 1-2 1-1-2-1-1h-3l-1-1-2-1-2-3h-2v-3l2-2 1-3 2-3h3l1-1-2-1v-2l-2-5 1-1 4-5 2-3 6-5 3-1 2-2v-1l-2-3 1-2-2-1-2-3-3-4v-1l-1-2v-2h3l1 1 2-2 2-2 1-1 7-1h14l8 2 7 1h2l3 2 1 1 3-1 1 1 1 2 2-2h2l2-1 6 1 1 2h1l1-1 4-2 3 4h1l2-1h8l3 1v1l3 1 1-1-2-4 1-4 1-2 3-2 1-1 2 1 2-1h5l3 1h2l2-1 1-3 2-1 4 1h1l3-1 2-1 2 1h4l3 1 2 2 2 3 4 3v1l-3 1 1 2 1 3 1 1v2h3l4 1 5-1 1 3h2l1 1 1 3 1 2v2l1 1 2 2 1 1h1l3-1h3l3 2h2l2 2 2-2 5-1 3-1h1l2 2 1 2 2 1 5 4 2-1 1-2 3 2h2l5 2h3l2 2h2l5 3 4-1 1 1v2l1 1v3l-2 3-3 1 2 1 3 1-1 1h-2v1l-1 3 3 1 1 3v1l2 1-2 5v2h-13l-1 2-2 2h-2l-1 1v3l-1 1 2 1-1 2 1 1h-6l-4 1-2 2h-2l-4 2-1 2-2-1-3 1-2 1h-4l-3 1-5 4h-1l-2-1-1 3-3 1 1 4 3 5 4 4 2 2 3 1 3-2 3 1 2-2h2l4 1-1 3-1 3-2 1h-5l-3-2h-3l-1 3-3 1-1 2-3-1-2 1-3 1-2 3-3 3h-5l-1-1-3-2v-2l1-4-1-3-3-2h-3l-4-3h-4l-2-1 4-3 4-3h2l2-2 3-1-2-3-2 1-2-2-1-1-4 1h-2l-4 1-3-1-4-2h-3v-2h2v-1l-4-1-1-1h3l3 1h4l2-2-3 1-3-1-2-2-3 1h-4l-2 1h-3l-5 1v3l-2 5-4 4-5 2h-2l-1 1v2l1 1 1 3v2Zm-110 53-3 1-1 2-2-1h-1l-4 1-1 3v1h-2v-3l-2-3-2-2h-2l-2-4v-2l-1-1 2-1v-1h2l2-1v-1l2-2v-3l1-1 2 2 3 1 3 3 2 2v1l6 2v1l-2 4-1 1 1 1ZM367 486l-1 1-3 2-5-1-1 1-2-1v-2h3l4 1 2-1 1 1 2-1Zm-4-6 2 2h-2l-2-1 2-1Zm21-10h-4l-1-1 3-2 4-2 2 1v1l-1 1-3 2Zm-9-13-1 1-1-1 2-2v2Zm-8 29-3-1-3 1-3-1-2-2h9l1-1v-1l-3-2 2-3 1-1 4-5 1-2 1-6 2-3 1 1 2-1 4-2 2-2 1-1 4-2 3-1h10l2 2h3v5l-1 2-1 5h-3l-1 1 1 2h3l1 1-1 3-3 2v1l1 1-1 1-5 2-3-1h-2l-1 2 4 4v2l-2 3 1 1-2 2-1 1 2 1v3h-5v-1l1-2 1-3-3-2-2-1h-2l-3-1-1-2-3 1-1-2-2 2-1-1h-2v1h-2Zm21-18 1-1-1-2h-2l-1-1 1-3-4-1v-2h-2l-2 2v1l2 2v1l-2 1v5l6 1 4-3Zm-58 239v1h-2v-2l1-2 3-1 1 2-3 2Zm25-16 2 1 1-1 2 1v1l-2 4-1 1-3 2-4-2-1-2-1-1-2 2-2-1v-2l6-4 2-1 3-1 1 1-1 2Zm17-1v1l-5-3h-1v-2h3l2 1 1 2v1Zm-89-63 1 1 5 2-1 3h3l5 2h2l3 2h4l3 2h10l1-2 5 1 3 1h2l1 2v2l1 1 3-1 3 1 2 1 2-1 5 2 2-1 4-2 4 1 1 3h-2v2l1 1v3l-3 3-10 5-4 3-7 2-5 2h-3l-5 5h2l1 1v1l-3 1h-1l-4 6-3 4-1 1-2 3-4 6v2l2 6 3 3 2 2 1 1-1 1-3 2-5 2-2 3v2l-1 1-1 3-2 5 1 1-1 1h-8l-4 3-3 3-2 5-2 3-1 1-2-1-2-1-3 1-1 1-1 1-2-1h-5l-3 1-2-1h-12l-5 4h-3l-4 2-2 3-1 2h-1l-1 1-2 1-3-1-2-2h-1l-2-3-1-3v-1l-2-1v-4l-2-2-5-4h-8l-1-7 1-3 4-5h2l1-3h-2l-4-5 2-4 3-4 1-3-1-1h-2l-1-4-1-2-1-1-2-2 2-1h6l2-4v-3l-2-1v-1l3-3v-9l-1-3 2-1 2-2 1-2 3-1 3-3-1-1-2-1-2-1v-3l-1-1h-6l-2-1-1 2-2 1h-2l-3-1h-3l-3 1-1-1 1-3-1-2-5 1-2 2-1 1h-2v-3l3-3h-2l2-3-1-1v-3l-3 1-1-1 2-3h-2l-2-3 1-3 2-1 2-2h5l4-2v-3l4-1 2-1 2-1 2 1h3l2 2 2 1 3-1h12l3-1 3 1 5 1 3 1 8 1h7l2-1h4l3 1 5 1 3-1h4l3 2h5l3-1Z"/><path fill="#22252A" d="M446 637v3l1 2 1 7-2 4v3l-2 5-1 2-4-3-2-1 1-2-2-1v-3l-2-1 1-1v-1l-1-1-1-1 2-1-1-1v-2l1-2 2-1 3-1 1-1h2l1-1v-4h2v3Zm-154-55v2l-2-3h1l1 1Zm97-64 3 2h1l3-1 1 1h2l4 5 2-1 1 1 1 1h2l4-1 2 2 5 1h2v2l-4 4-1 6-1 3-1 1 1 3-1 2v2l1 2h-2l-1 2h-3l-1-1h-1l-2 2 2 1-1 1-4 5-3 1v3l-4 3-1 3 1 1-1 2-1 1v1h1l3-2-1-1 3-2h5l1 3-1 2 3 2 1 2-3 2v2h1l2 3 2 2-1 3h-1l-2 2h-3l1 4 4 1 1 2-1 1-2 3 1 1v2l1 1 6 3 4-1v2l-2 3v2h-1l-1 1-3 1-4 4-2 1-1 2-2 2h-3l-3 2-1-1h-3l-2-1-4-1-1-2h-3l-1-2h-2l-2 1h-2l-7-2-2-2-2 1-1 2-8 4-3 5v2l1 4 2 3-4-1-4 2-2 1-5-2-2 1-2-1-3-1v-2l-3-1-1 1-1-2h-2l-3-1-5-1-1 2h-10l-3-2h-4l-3-2h-2l-5-2h-3l1-3-5-2-1-1 3-1 2-2 2-8 1-10 1-2h2l-1-2-2 2 1-9 1-3 1-3 3 3 1 1 1 4h1l-1-6-2-2-5-3v-1l2-1-1-2v-7l-4-1-5-3-2-3-2-2v-2l1-2-1-1-2-1 1-2h-3l-2-1v-1l1-1-2-1h-3v-2h-4l-1-1h-2l-2-1h-1l-6-2h-2l-2 1-1-1-2-2-3-1v-1l4-1 1-1-3-1v-1h2v-1h-5v-3l3-2 7-1h4l4-2h6l3 4 1 1 4-2h5l1 1 2-2 1 1h5l-2-3v-7l-1-2-3-5v-1h4l3-1 2 1v3l1 2h5l4 1 5 1 2-1 4-2-2-1v-1l1-2 6-3 4-1 4-2 3-1 1-2 1-2v-8l1-2 3-2 8-1 1-1 1 3v1l3 3 4-1 2 2v2l5 1 1 3 1-1 4 1 2 1-1 2 1 1-1 1 1 1h5l1-1 1-1 2-1-1 3 1 1v2h2l4 2 3 3 4-1ZM199 738h-1l-6 3h-1l-3-1-5-1h-2l-2 1h-2l-1 1h-1l1-3 2-4v-3l1-3-1-2v-2l1-4v-2l-1-3 3 1-2-2h-2l-2 1h-2v-1l-1-2 3-1 2-2-1-2-1 1-1 2-3 1-2-1v-2l1-2v-3l1-2v-2l2-1 2-2 4-11v-1l2-7 1-3 1-5v-2l-1-3-1-4v-2l-1-2v-1l2-2 1-1 2-2 5-1 1 2-1 3 1 1 3-1h3l3 1h2l2-1 1-2 2 1h6l1 1v3l2 1 2 1 1 1-3 3-3 1-1 2-2 2-2 1 1 3v9l-3 3v1l2 1v3l-2 4h-6l-2 1 2 2 1 1 1 2 1 4h2l1 1-1 3-3 4-2 4 4 5h2l-1 3h-2l-4 5-1 3 1 7Zm617 40Zm0 0Zm-1-1h1-1Zm5-1v1l1 1h-4v-1h-1v-1h4Zm-5 2h-1v3h-2l-1 1v-1 1h-2v1h-3l-1 1h-1 1v-1h-4l1 1h-2v-1h-3v-1h-1v-1l-1-1v-1h-1 1l-1-1v-1l-1-1h2v1h1v-1l1-1v-1h1v1h1v-1l1 1h1v1h3v-1h2l1-1v1h4v3h1v-1l1 1v-1h2v1Z"/></svg>