<svg xmlns="http://www.w3.org/2000/svg" fill="none" viewBox="0 0 140 28"><path fill="#F1F3F9" d="M36.7 12.1h7.8c.5 0 .6.6.2 1.2L43 16c-.4.7-1.2 1.2-1.7 1.2h-7.8c-.5 0-.6-.5-.2-1.2l1.6-2.6c.4-.6 1.2-1.2 1.7-1.2ZM73.8 0c2.9-.2 6.3 2 4.6 5-1.6 2.6-7.4 3.3-9.1 3-.6 0-1.5-.4-1.5-1.2 0-.7.4-2.9 1.6-4.6C70.6.6 72.4.1 73.8 0Zm17.8 5.7c1-.4 1 .6 1 .9v2.3c0 .4.3.2.5.1 2.7-1.1 5.4-2.8 8.8-2.7 3.1 0 4 2.5 4 5.2v11.9c0 1 0 1.3.6 1.7l1.3.1c.3 0 .3.3.2.5l-.7 1.9a1 1 0 0 1-.8.4h-6.9a3 3 0 0 1-3.1-2.9V14c0-2.3-3.8-2.5-3.8.6V24c0 .5 0 1 1.1 1.1.8 0 1.4 0 1 1l-.6 1.4c-.1.3-.5.5-.8.4H82a.4.4 0 0 1-.4-.4l.9-2.1c0-.1 0-.3.2-.3.4 0 .6-.2.7-1.3V11.5c0-1-1-.9-1.6-.9-.3 0-.5 0-.4-.5l.6-1.4c.1-.3.3-.4.5-.4 3.8-.6 6-.9 9.2-2.6ZM119.7.5c.6 0 1 .3 1 1v11.9c0 .6.6.2.7 0l4-5.2c.5-.5 1.6-.6 2.2-.6h8.9c.2 0 .2.2 0 .4l-1 1.5c-.1.1-.2.3-.8.3h-.4c-.4 0-.5.2-.6.3l-4.6 5c-1 1.2-.7 1.7.1 2.5l6.3 6.5c1.4 1 2.6 1 4 1 .5.1.4.4.2.6l-1.6 1.8c-.1.3-.9.4-1.3.4h-6.2c-.8 0-2.2-.2-3.3-1-2.3-1.8-3.7-4.1-6-6.2-.3-.4-.6-.2-.6 0v2.8c0 1.2.5 1.5 2.2 1.6.7 0 .5.4.4.8l-.6 1.5c-.2.4-.4.5-.7.5h-13c-.4 0-.6-.1-.6-.4l.8-1.8c.1-.4.2-.5.8-.5.8 0 1.2-.4 1.2-1.7V6.1c0-.6-.1-.8-.6-.7l-1.6.2c-.5 0-.6-.3-.4-.7l1-1.6c.2-.4.6-.4 1-.5a56 56 0 0 0 8.6-2.2h.4Zm-41.5 7c.4-.2.9.2.8 1v15.3c.2 1.1.5 1.4 1.5 1.5 0 0 .6 0 .5.5l-.7 1.6c-.2.5-.4.6-1 .6H67.5c-.3 0-.4-.3-.3-.6l.6-1.5c0-.2.1-.5.5-.5 1.2-.4 1.3-.5 1.3-2.1V14c0-1.5-.2-1.4-2-1.3a.3.3 0 0 1-.3-.5l1-1.6c.2-.5.5-.5.5-.5 3.4-.3 6.8-1.1 9.5-2.7ZM17.7 28c2.6 0 5.8.1 8.7-2.2 2.1-1.3 4.6-6.9 5.5-9.2a5 5 0 0 0 0-4 40.1 40.1 0 0 0-5.4-9.2c-2.2-2-4.2-2.1-7.6-2.1H4.5c-.6 0-1.3.1-1.6.5l-1 2c-.2.8.8.9.8.9h1.5c.4 0 .5.3.5.6v17.9c0 .8-1 1.3-1.7 1.4-.3.1-.8.2-1 .6l-1 2c-.2.4.1.8.4.8h16.3Zm-3.6-3.4V5.4c0-.5 0-.7.5-.8H16c.5 0 1.3-.1 1.7.7l4.9 8.5c.4.8.3 1.2 0 1.8l-5 8.3c-.5.8-.8.7-1.6.7h-2Z"/><path fill="#F1F3F9" d="M59 1.5c.6 0 .9.3.7.6l-1.2 2.3s-.2.5-1.3.5H57c-.7 0-1.3 0-1.3 1.5v17c0 .7.3 1.3 1.2 1.3h1.7c2.9 0 2.8-3 3.5-5.5.1-.4.2-.7.7-1l2.5-.8c.4 0 .7 0 .8.6v8.5c0 .8-.7 1.5-1.7 1.4H42.6c-.8 0-1-.2-.8-.7l.8-1.8s.3-.4 1-.4c1.6-.1 2.6-.1 2.6-2.6V6.5c0-1-.2-1.7-1.3-1.7h-1.2c-.8 0-1.3-.3-1-.7l1-2.1c.3-.5.5-.6 1-.6H59"/></svg>