<svg xmlns="http://www.w3.org/2000/svg" fill="none" viewBox="0 0 140 34"><path fill="#F1F3F9" fill-rule="evenodd" d="M120.174.275c-7.221 0-13.168 5.84-13.168 13.168 0 7.22 5.841 13.167 13.168 13.167 7.221 0 13.167-5.84 13.167-13.167S127.395.275 120.174.275Zm10.194 5.84c-.637.425-1.381.85-2.124 1.275a12.075 12.075 0 0 0-1.593-2.442c.429-.258.858-.584 1.23-.868l.257-.194c.956.53 1.699 1.38 2.23 2.23Zm-5.522-4.353c1.062.425 2.018.956 2.973 1.699-.424.425-.955.743-1.486 1.062-.637-.743-1.381-1.38-2.124-2.018.212-.318.425-.53.637-.743Zm1.062 2.973c-.496.283-.991.472-1.487.661-.247.094-.495.189-.743.295-.319-.743-.637-1.487-1.062-2.124.425-.212.85-.425 1.168-.743a11.91 11.91 0 0 1 2.124 1.911Zm-2.124-2.548c-.158-.09-.312-.181-.463-.27-.561-.331-1.098-.648-1.767-.898.956 0 1.912.212 2.761.53-.212.213-.425.425-.531.638Zm-.425.318c-.318.213-.637.425-.955.531-.213-.318-.425-.61-.637-.902a26.571 26.571 0 0 1-.638-.903c.744.319 1.487.743 2.23 1.274Zm-2.973-1.168c.531.531.956 1.168 1.381 1.912-.425.106-.85.212-1.381.212V1.337Zm0 2.655a4.81 4.81 0 0 0 1.699-.319c.425.638.743 1.38 1.062 2.124-.849.213-1.805.319-2.761.425v-2.23Zm-.531-2.655v2.124c-.352 0-.704-.073-1.116-.158a35.282 35.282 0 0 0-.264-.054c.531-.637.955-1.275 1.38-1.912Zm-1.805 1.7c-.319-.107-.743-.32-.956-.532.744-.424 1.487-.85 2.23-1.168-.531.531-.955 1.062-1.274 1.7Zm.743-2.124c-.743.318-1.486.743-2.23 1.168-.212-.213-.424-.425-.531-.638.85-.212 1.806-.424 2.761-.53Zm9.026 22.511c-1.699-.955-1.805-2.336-1.699-2.76.084-.418.298-.376.489-.339a.82.82 0 0 0 .148.02c1.168 0 2.337-.319 3.823-1.912 1.699-1.698 2.23-5.521-.425-7.964-2.76-2.654-5.734-2.23-7.645.213-.425.53-1.381.85-2.124.85-.988 0-.699.574-.519.931.052.104.094.189.094.236 0 .213-.212.319-.318.319-.347-.087-.269.323-.229.533a.755.755 0 0 1 .016.104c0 .106-.212.319-.212.319-.531 0-.425.424-.318.637 0 .106 0 .318-.213.425-.212.106-.318.53-.318.849 0 .531.531.956 1.38 1.593.85.637.956 1.274.956 1.699 0 .425.106 1.168.212 1.593.212.53.212 1.593-.956 1.593-1.486.106-4.035 1.168-4.247 1.274-.85.318-1.912.424-2.761.212-.425-.318-.85-.637-1.274-1.062-.213-.53.106-1.168.424-1.593.459.46.998.442 1.41.43.064-.003.126-.005.183-.005.425 0 2.336-.318 2.655-.425.319-.106.425-.106.531 0 .743.319 1.805.319 2.23-1.061.425-1.487-.531-1.062-.743-.956-.107.106-.319 0-.213-.106.213-.319-.106-.319-.212-.319-.425 0-.956.425-1.062.531-.212.106-.319.106-.425.106-.198-.119-.546-.134-.931-.15-.643-.029-1.391-.062-1.724-.593 0-.213-.424-3.717-.637-4.354 0-.023-.005-.05-.01-.082-.021-.115-.05-.282.117-.449.288-.432.869-.278 1.412-.134.257.068.506.134.711.134.612 0 .792-.215.955-.41.035-.042.07-.083.107-.12.125-.125.213-.14.285-.153.052-.008.096-.016.14-.06.071-.07.047-.142.024-.212a.34.34 0 0 1-.024-.107c0-.053.026-.053.066-.053.04 0 .093 0 .146-.053.074-.074.045-.2.021-.305a.576.576 0 0 1-.021-.12.572.572 0 0 1 .269-.2c.165-.075.293-.132.156-.543-.106-.425.106-.85.319-1.062.318-.425 1.699-2.336-.637-4.353-2.23-1.912-4.567-1.7-6.053-.107-1.315 1.409-.886 3.4-.695 4.281.025.115.045.212.058.285.106.638-.319 1.168-.85 1.38-.425.213-1.38.85-2.017 1.381.106-5.097 3.185-9.557 7.858-11.362.106.106.212.239.318.372.106.132.212.265.319.372-.531.424-1.699 1.38-1.699 1.38s.106 0 .318.106c.106 0 .319.106.319.106s.955-.85 1.486-1.168c.319.319.744.531 1.168.744-.212.424-.849 1.486-.849 1.486s.106.106.212.106c.107.107.213.107.213.107s.637-1.168.849-1.593a4.262 4.262 0 0 0 1.593.318v2.124c-.319 0-1.062 0-1.38-.106h-.213l.106.212a.56.56 0 0 1 .107.16.545.545 0 0 0 .106.159h1.274v3.929h.531v-.956c.764 0 1.356-.086 2.008-.18l.222-.032.743-.637h-.425l-.311.039h-.007c-.718.092-1.355.173-1.911.173h-.319V6.647c.956 0 2.018-.107 2.973-.425l.744 2.23.53-.213-.743-2.23c.605-.15 1.156-.41 1.691-.66.217-.103.431-.203.645-.295a12.074 12.074 0 0 1 1.593 2.442c-.425.213-1.062.425-1.062.425.531.106.956.212.956.212s.212-.106.318-.106c0 .106.107.319.107.319l.743.318-.106-.212s-.213-.531-.319-.637a11.916 11.916 0 0 0 2.23-1.275c1.381 2.018 2.018 4.46 2.018 6.903.212 4.035-1.805 7.645-4.779 9.981Z" clip-rule="evenodd"/><path fill="#F1F3F9" d="m105.838 3.78-.212.212c-.743.637-2.548 2.442-2.23 4.46v.106l.106.425.213-.213c1.062-.955 1.911-2.654 2.23-4.566l.106-.53-.213.106Zm-3.716 3.61.106-.212V7.07l.212.425c.531 1.38.85 4.46.637 5.947l-.212.85-.212-.426c-1.062-1.38-1.168-3.291-.956-4.566.106-.85.319-1.592.425-1.911Zm-1.168 5.097v.212c-.106 1.275 0 4.566 2.654 6.372l.319.212v-.425c0-1.274-1.487-4.99-2.549-6.265l-.318-.425-.106.319Zm5.309 11.893c-2.761-.956-4.46-3.929-4.885-5.84v-.425l.319.212c1.699 1.062 4.354 4.354 4.885 5.734l.106.425-.425-.106Zm.743-17.733-.022.007.022-.114v.107Zm-.022.007-.084.417c-.318 1.275-1.805 3.61-2.867 4.566l-.318.213v-.425c0-1.911.955-3.398 2.973-4.672l.296-.099Zm-1.358 4.24.106-.212.106-.106V11c.107 1.38-.955 4.354-1.805 5.522l-.212.319-.106-.319c-.107-.318-.213-.743-.213-1.062-.106-2.23 1.593-4.035 2.124-4.566Zm.212 3.716-.106.213c-.849 1.274-1.274 2.549-1.274 3.823 0 .85.319 1.699.849 2.548l.213.319.106-.319c.319-.743.637-2.973.637-4.778a4.93 4.93 0 0 0-.212-1.487l-.106-.424-.107.106Zm.804 4.536.046-.181.212-.425.213.318c.849 1.062 1.911 4.672 1.911 6.053v.319l-.106.318-.213-.106c-1.486-.956-2.336-2.336-2.336-4.035-.098-.788.078-1.485.273-2.26Zm-2.609 5.34c1.062 1.805 2.973 4.248 6.478 3.61h.318l-.212-.212c-.637-.955-4.885-3.398-6.371-3.61l-.425-.106.106.106.106.212Zm4.566 4.566.531-.106c4.883-1.27 8.688-.653 11.085.28 2.315-.933 6.128-1.55 11.108-.28l.531.106-.531.213c-2.229.955-5.097 1.168-6.689.637-.531-.213-.956-.531-1.381-.956-.788.058-1.56.285-2.298.623l.082.048c.675.398 2.685 1.582 4.021 3.364l.107.106-.107.107c-.106.106-.318.318-.531.424h-.106l-.106-.106c-1.017-1.22-2.467-2.614-4.129-3.545-1.628.935-3.047 2.345-4.047 3.545l-.107.106h-.106c-.053-.053-.159-.132-.265-.212-.106-.08-.213-.16-.266-.212l-.106-.107.106-.106c1.34-1.786 3.355-3.046 4.025-3.402a7.393 7.393 0 0 0-2.22-.633c-.424.425-.743.743-1.38.956-1.699.53-4.46.318-6.69-.637l-.531-.213Zm.637-6.052v.212c.319 2.124 1.168 4.885 4.779 4.566h.212l-.106-.212c-.212-.956-3.504-3.717-4.672-4.46l-.319-.213.106.107Zm25.167-18.902-.106-.53.212.105.213.213c.743.637 2.548 2.442 2.229 4.46v.106l-.106.425-.212-.213c-1.062-.955-1.912-2.654-2.23-4.566Zm3.398 3.292c-.531 1.38-.743 4.46-.637 5.946l.212.85.106-.106.107-.213c1.168-1.38 1.168-3.185.955-4.566-.106-.955-.318-1.592-.424-1.911l-.107-.212v-.213l-.212.425Zm1.274 5.31.319-.425.106.318v.213c.106 1.38 0 4.672-2.655 6.37l-.318.213v-.424c0-1.275 1.486-4.885 2.548-6.266Zm-.106 5.415-.425.212c-1.699 1.062-4.353 4.354-4.884 5.734l-.107.425.425-.106c2.761-.85 4.566-3.929 4.885-5.84v-.213l.106-.212Zm-5.522-11.15-.106-.53.212.212.213.106c2.017 1.274 2.973 2.76 2.867 4.672v.425l-.319-.213c-1.168-.955-2.442-3.291-2.867-4.672Zm1.062 3.611V11c-.106 1.38 1.062 4.46 1.805 5.522l.213.319.106-.319.065-.253c.081-.304.147-.557.147-.809.106-2.23-1.593-4.035-2.123-4.566l-.107-.106-.106-.212Zm-.425 5.734c0-.637.107-1.168.213-1.487l.106-.425.106.107.106.212c.85 1.274 1.275 2.655 1.275 3.823 0 .955-.319 1.805-.85 2.548l-.212.319-.106-.319c-.425-.743-.638-2.973-.638-4.778Zm-.637 2.23-.212.318c-.85 1.062-1.912 4.672-1.912 6.053v.319l.107.318.212-.106c1.487-.956 2.23-2.336 2.336-4.035a10.3 10.3 0 0 0-.318-2.442l-.213-.425Zm-3.716 9.238c.637-.956 4.884-3.398 6.371-3.61l.425-.107-.106.107-.107.212c-1.062 1.805-2.973 4.248-6.477 3.61h-.319l.213-.212ZM130.793 23l.318-.213-.106.106v.213c-.425 2.124-1.274 4.884-4.779 4.566h-.212l.106-.213c.319-.955 3.504-3.716 4.673-4.46ZM88.636 12.806v16.99h3.717v-16.99h4.566v-2.549h-4.566v-3.61c-.107-2.124 1.061-2.655 3.185-2.655.319 0 .637.027.956.053.319.027.637.053.956.053v-3.08C96.6.807 95.644.595 94.795.595c-2.761 0-6.053 1.168-6.159 5.416v4.247h-3.398v2.549h3.398ZM45.948 1.55h-4.46v4.035h4.46V1.55Zm-.318 8.707h-3.717v19.751h3.717v-19.75ZM17.49 30.008v-19.75h-3.823v10.087c0 .53 0 2.867-.743 4.672-.743 2.124-2.867 2.867-4.354 2.867-3.61 0-4.353-2.548-4.353-5.946v-11.68H.5V23.53c0 3.928 2.336 7.114 6.477 7.114 2.761 0 5.31-1.062 6.796-3.504h.107v2.867h3.61Zm7.433-16.884c1.38-2.442 4.035-3.504 6.053-3.504 1.38 0 7.433.319 7.433 6.69v13.592h-3.716V17.478c0-3.292-1.38-4.991-4.567-4.991 0 0-2.017-.106-3.61 1.487l-.078.077c-.55.54-1.515 1.487-1.515 5.232v10.725h-3.716v-19.75h3.716v2.866Zm32.281-.744c2.655 0 3.823 1.7 4.035 4.142h3.61c-.212-4.247-3.29-6.902-7.432-6.902-6.265 0-9.132 4.778-9.132 10.513 0 5.734 2.548 10.194 8.813 10.194 4.354 0 7.646-2.655 7.964-7.115h-3.716c-.213 2.867-1.7 4.46-4.142 4.46-3.504 0-4.884-3.08-4.884-7.646s1.38-7.645 4.884-7.645Z"/><path fill="#F1F3F9" fill-rule="evenodd" d="M70.584 20.77c-.319 3.398 1.168 7.008 4.885 7.008 2.867 0 4.353-1.168 4.778-4.035h3.93c-.638 4.46-4.036 6.69-8.708 6.69-6.265 0-8.814-4.46-8.814-10.194 0-5.734 2.867-10.513 9.132-10.513 5.84.106 8.601 3.823 8.601 9.239v1.805H70.584Zm9.982-2.549c.106-3.292-1.38-5.84-4.991-5.84-3.08 0-4.885 2.655-4.885 5.84h9.876Z" clip-rule="evenodd"/></svg>