<svg xmlns="http://www.w3.org/2000/svg" fill="none" viewBox="0 0 112 70"><path fill="#F1F3F9" fill-rule="evenodd" d="M111.76 63.95c.05.27-.12.5-.39.5h-35.5c-3.53 0-7.5-3-10.12-5.24a3.28 3.28 0 0 0-2.08-.81l-44.9-.02 2.25 11.15c.06.26-.12.47-.39.47h-5.81a.62.62 0 0 1-.59-.47L.24.5C.19.22.36 0 .63 0H43.3c3.57 0 7.55 3.06 10.21 5.32a3.2 3.2 0 0 0 2 .73l44.02.02c.26 0 .52.22.58.49 3.89 19.13 7.76 38.26 11.64 57.4Zm-.6-57.89h-1.96l-.4 3.15h-.06l-.41-3.15h-1.97V9.8h.97V7.93l-.1-1.28h.2l.38 3.14h1.92l.37-3.14h.2l-.1 1.28V9.8h.97V6.06Zm-9.35 0v1.02h1.5V9.8h1.06V7.1h1.5V6.05h-4.06ZM68.04 20.22a.56.56 0 0 0-.38.45c-.27 2.9-.5 5.8-.74 8.7-.02.26.15.6.45.79l6.32 4.43c.41.28.51.24.97.24h6.55c2.2 0 4.36 1.63 4.76 3.64l.18.84c.4 2-1.05 3.64-3.27 3.64h-2.8a4.99 4.99 0 0 1-4.73-3.54l-.46-2.26c-.06-.25-.34-.46-.63-.46h-5.92c-.3 0-.49.21-.44.46l.52 2.42a12.31 12.31 0 0 0 4.69 6.87 13.83 13.83 0 0 0 7.98 2.85h3.05a9.5 9.5 0 0 0 7.1-2.86 7.92 7.92 0 0 0 1.92-6.9l-.04-.22-.18-.84c0-.07-.03-.14-.04-.2a12.4 12.4 0 0 0-4.74-6.91 13.94 13.94 0 0 0-8.27-2.87h-5.5l.14-1.95h13.28c.27 0 .47-.23.41-.48l-1.06-5.38a.63.63 0 0 0-.42-.45h-18.7Zm-5.06 1.57c-.19-.95-.36-1.26-1.11-1.85l-4.48-3.25c-.78-.66-1.23-.64-2.18-.64h-1.87c-.35 0-.58.15-.57.65l.94 5.12c.1.54.37.6.79.6l1.43-.02 4.24 20.73c.26 1.25.16 1.48.9 2.02l3.52 2.6c.42.36.98.54 1.47.54h1.89c.23-.05.38-.23.33-.45l-5.3-26.04Zm-23.23-5.74h-.42c-.28 0-.55.22-.57.48-.49 5.17-.87 10.35-1.24 15.53a879.92 879.92 0 0 1-7.55-15.53.92.92 0 0 0-.75-.48H18.57c-.29 0-.5.2-.44.46 1.82 9.39 3.84 18.75 5.7 28.14.04.25.32.45.61.45h5.92c.28 0 .47-.2.43-.45-1.24-6.42-2.6-12.81-3.91-19.2 3.12 6.38 6.28 12.75 9.34 19.18.12.24.43.45.7.48h6.45c.26-.03.49-.24.51-.48.57-6.4 1.03-12.8 1.52-19.19 1.31 6.4 2.68 12.78 3.91 19.2.05.26.34.46.62.46h5.91c.3 0 .5-.2.44-.45-1.84-9.4-3.84-18.75-5.68-28.14-.05-.25-.33-.46-.63-.46H39.75ZM17.38 51.59h36.38c3.57 0 7.56 3.06 10.22 5.32a3.2 3.2 0 0 0 2 .72l37.7.02-9.07-44.8H65.4c-3.52 0-7.49-3-10.11-5.22a3.28 3.28 0 0 0-2.1-.82L8.3 6.8l9.08 44.8Z" clip-rule="evenodd"/></svg>