<svg xmlns="http://www.w3.org/2000/svg" fill="none" viewBox="0 0 140 22"><path fill="#fff" d="M64.6 1.3c-1.1 0-1.7.4-2 1.3l-.2 2.2V17l-.6-.4c-1.5-1.8-3-3.6-4.7-5.2a536 536 0 0 0-9.7-9.5c-.7-.8-1.7-1-2.9-.8v19c1.6-.3 1.9-.6 2-2l.2-2V4.6l1 1 14 13.4c.4.4 1 .8 1.5 1 1.1.3 1.5 0 1.5-1.2V1.3ZM127.8 12l2.4-1.5c1.6-1.1 1.9-2.8 1.7-4.6-.3-1.8-.9-3.4-2.8-4a35 35 0 0 0-5.5-.9h-8.2c-.8 0-1 .2-1 1v18c1-.2 1.6-.5 1.9-1.3.2-.6.3-1.3.3-2V3.3l.7-.2c3.2.2 6.6.2 9.8.6 2.4.3 2.4 1.2 2.5 3.1 0 .7-.2 1.7-.7 2-1 .5-2 1-3.2 1-2.2.2-4.5.2-6.8.2-.7 0-1 .5-.5 1a4 4 0 0 0 1.8 1.1 6 6 0 0 0 2.3 0c1.6-.2 3 .2 3.9 1.7 1 1.7 2.4 3.2 3.5 4.8.8 1.2 2.8 2 4 1.4l-6-8ZM.6 19.5l1 .5c2.5.8 5 1.2 7.5 1.2 3 0 5.8-.4 8.2-2.2 1.2-.8 1.6-2.1 1.5-3.5a4 4 0 0 0-.7-2.1 8.5 8.5 0 0 0-4.6-2.9L5.6 8.3c-1-.2-1.9-.8-2.4-1.8-.5-.7-.4-1.5.3-2a7 7 0 0 1 2.3-1.2 20 20 0 0 1 9.8.5c.8.2 1.4-.2 1.7-1 .3-.8-.4-.8-.8-1l-.6-.3C13 .7 10.4.7 7.6 1c-1.8 0-3.4.4-5 1.3-1.3.8-2 2.1-2 3.6-.2 1.8.7 3 2.3 3.7 1 .5 2 1 3 1.3l7 1.9c1.4.3 2.3 1.3 3.3 2.2.2.1.2.5.2.7 0 1-.5 1.7-1.3 2.1-.8.5-1.8 1-2.7 1a22 22 0 0 1-9.2-.5c-1.7-.5-1.7-.4-2.6 1.3ZM110 1.1l-.2-.1H95c-.8 0-1 .4-1 1v17c0 1 .2 1.2 1.3 1.2h14.3l.5-.1c-.2-1.6-.7-2-2.1-2H96.5v-6.6h12.9c-.5-1.8-1.4-2-2.8-2.1H96.5V3.2h1.1l10.1-.1c1.5 0 2-.5 2.3-2ZM31.1 3.4l1.5 2.8 6.7 12.7c.5 1 1.7 1.5 2.8 1.1l-.4-1-2.2-4.2L33 2.7a3 3 0 0 0-1-1.2c-1-.8-1.8-.6-2.5.3l-.5 1c-1 2-2 3.8-3.2 5.6.2 1-.7 1.5-1 2.3-1.4 2.9-3 5.7-4.3 8.5l-.4.9c1.2 0 2.5-.6 3-1.5.4-.9.8-1.8 1.4-2.7.2-.3.7-.6 1-.6H35c-.3-1.2-1-1.9-2-2l-5.5-.1c-.6 0-1.2-.7-.9-1l.9-1.7c.3-1 1-1.9 1.5-2.8.8-1.3 1.4-2.7 2.2-4.3Zm38.6 16.9L82 20a8.5 8.5 0 0 0 8.3-8.1c0-1.7.1-3.3-.4-5A7 7 0 0 0 85.4 2c-1.8-.6-3.9-.9-5.8-1-3-.1-5.8 0-8.7 0l-1.2.2c.4 1.4 1 1.9 2.2 1.9h2.8c3 0 6.2-.1 9.2.7 1 .3 2.3 1 2.8 1.8 1.2 1.8 1.6 4 1.3 6.1-.4 3.7-1.6 5.2-5.5 6-2 .3-4.2.3-6.3.3h-4c-1.5.1-2.2.8-2.5 2.3Zm0-16.2v13.3c1.6-.4 2.2-1.2 2.2-2.9v-5c0-1.2 0-2.4-.2-3.6 0-1.1-.6-1.6-2-1.8Zm66.6 14.4c0 1.1.5 1.7 1.6 1.7.9 0 1.6-.7 1.6-1.7 0-.9-.7-1.6-1.6-1.6-1 0-1.5.4-1.6 1.6Z"/></svg>