<svg xmlns="http://www.w3.org/2000/svg" fill="none" viewBox="0 0 120 70"><path fill="#F1F3F9" d="m64.8 9.8 1.5 3.2h-3.6l1.5-3.2h.6Zm-7.2.6a2.2 2.2 0 0 1 4.3 0V13h-4.3v-2.6Zm-3-1.9c0-.4.2-.8.5-.8s.5.4.5.8-.2.8-.5.8-.5-.4-.5-.8Zm9.9-.8c.3 0 .5.4.5.8s-.2.8-.5.8-.5-.4-.5-.8.2-.8.5-.8Zm-9.2 2.1L57 13h-3.6l1.5-3.2h.5Zm23.4 8.6-.8.2c-.6 0-1-.6-.8-1.2.1.2.5.4.9.4l.7-.1h.7c.6 0 1 .1 1.3.4h-.5a4 4 0 0 0-1.5.3Z"/><path fill="#F1F3F9" fill-rule="evenodd" d="M79.6 18.4h3c1.5 0 2.3-.8 2.3-1.4h-7.2c0-1.3 1.3-2.2 3.7-2.2 0-.6.8-1.3 2.4-1.3h5s-.8 1.2-2.6 1.2c0 .2.2.3.4.3h1.1c.5.5.8 1.2.8 2.3 0 1.7-1 3-2 4.5-1 1.4-2 2.7-2 4.4l.2.7-6.6 1.4c.1-3.1 3-5.2 5-6.7 1-.7 1.8-1.3 1.8-1.7 0-.2-.2-.3-.3-.3-.6.3-1.3.4-2 .4-1.4 0-2.7-.5-3-1.6Zm2.2-3c0 .2.2.5.6.5.6 0 1.3-.6 1.5-1.2-1 0-1.8.3-2.1.6Z" clip-rule="evenodd"/><path fill="#F1F3F9" d="m57.8 3-.2-.3-.1-.4 1-.4-.4-1.1s.1-.2.3-.2l.4-.1.5 1 1-.4s.2 0 .3.3v.3l-1 .5.5 1.4v.1c0 .2-.1.4-.3.4-.2 0-.3-.1-.3-.2l-.6-1.4-1.1.5Zm14.9 18c-.4 0-.7.2-.9.3 0-1 .7-1.3 1.3-1.4l.6.1c-.2-.8-1-1.2-1.9-1.2.2-.3.7-.6 1.2-.6a2 2 0 0 1 2 1.6c.2-.4.3-1.1 0-1.6.8 0 1.4.5 1.4 1.5 0 .6-.4 1.9-.8 2.8v.3l3.6 1.3c-1 .6-1.6 1.3-2.1 2l-1.5-2h-2.2c.4-.7.7-1.2.7-1.8 0-.7-.6-1.3-1.4-1.3ZM51.2 9.3h-.5c-.3 0-.5-.4-.5-.8s.2-.8.5-.8l.4.2c.4-.7 1.2-1.4 2.3-2 1.7-.8 4-1.3 6.4-1.3 2.4 0 4.6.5 6.3 1.3 1.2.6 2 1.3 2.4 2l.4-.2c.3 0 .5.4.5.8s-.2.8-.5.8h-.5c0-.6-.3-1.1-.7-1.6-.4-.5-1-1-1.8-1.3-1-.5-2-.8-3.2-1V9H62a2.7 2.7 0 0 0-2-1.4v-.1c.2-.2.3-.5.3-.8 0-.5-.3-1-.6-1-.4 0-.7.5-.7 1 0 .3.2.6.4.8v.1c-1 .1-1.7.7-2 1.4h-.6V5.4a10 10 0 0 0-3.2 1c-.8.4-1.4.8-1.8 1.3-.5.5-.7 1-.7 1.6ZM67 13v-1.4a1.8 1.8 0 0 1 3-1.5v3h-3ZM42.3 44.5c.5-.3 1-.4 1.4-.4 1.5 0 2.1 1 2.1 2.1v.6a1.9 1.9 0 0 0-2.2-.9c.3.3.7.9.7 1.5l-.3 1a2 2 0 0 0-1.8-1.3c.3.6.2 1.4-.3 1.9-.5-.8-1-1.2-2.1-1.2A4.4 4.4 0 0 0 37 49v-1.5c0-2.3-.6-3.6-1.7-4.6l1.9-1c.4-.3.4-1 0-1.2l-2.8-1.6 2-1.2-1.4-.8a8 8 0 0 1 1.5-2.6l5.3 3c.8.6 1 1.7.5 2.5l-1 1.1c-1.2 1.3-2.5 2.8-2.5 5.4l3.5-2Z"/><path fill="#F1F3F9" fill-rule="evenodd" d="M56 33c1-.4 1.9-.7 3.8-.7 2 0 2.9.3 3.8.6 1 .4 2 .7 3.9.7 1.7 0 3-.5 3.7-1.3A20.8 20.8 0 0 1 59.8 51c-6.9-4-11-9.2-11.4-18.7.7.8 2 1.3 3.7 1.3 2 0 3-.3 3.9-.7Zm6.6 9.8h2.2V36s-.3-.2-1-.2c-.8 0-1.2.2-1.2.2v2.5H61V36s-.4-.2-1.1-.2c-.8 0-1.1.2-1.1.2v2.5H57V36s-.4-.2-1.1-.2c-.8 0-1.2.2-1.2.2v6.8H57v-2.5s.2-.2.8-.2c.6 0 .9.2.9.2v2.5h2.2v-2.5s.2-.2.9-.2c.6 0 .8.2.8.2v2.5Z" clip-rule="evenodd"/><path fill="#F1F3F9" d="M78.3 42.1c-1.1.6-2 1-3.3 1-1.8 0-2.8-1-2.8-2s.6-1.7 1.6-1.7c.7 0 1 .5 1.2 1-.6 0-1 .3-1 1 0 .5.3.9 1 .9 1 0 1.8-.3 2.7-.8l.6.6Z"/><path fill="#F1F3F9" fill-rule="evenodd" d="m30.2 22.2.2-.5c.2-.8.7-2 1.3-3H30l.4-.6c.8-1.4 1.5-2.2 2.2-3h.8c.2 0 .3 0 .3-.2-1.8 0-2.2-1.4-2.2-1.4h4.3c1.9 0 2.3.6 2.3 1l2.6.5v.5h-.9c0 .1.1.3.3.3l.5.1-.1.7c-.1.4-.4.7-.9.7H38c-1.8 0-2.7.7-2.7 1.4H40c-.2 1-.6 1.6-1.6 1.6l-1-.1-.7-.2c-.3 0-.5.3-.5.6 0 .7.8 1.5 1.8 2.4 1.6 1.3 3.5 3 3.5 5.3l-10.1-2.5v-.6c0-1 .2-2.3.5-3h-1.7Zm7-6.3c.4 0 .6-.3.6-.6-.3-.3-1.1-.6-2.1-.6.2.6.9 1.2 1.5 1.2Z" clip-rule="evenodd"/><path fill="#F1F3F9" d="m85.2 39.1-2.8 1.6c-.4.3-.4.9 0 1.2l1.9 1c-1.1 1-1.7 2.3-1.7 4.6V49s-1.2-1.2-2.8-1.2c-1 0-1.6.4-2 1.2-.6-.5-.7-1.3-.4-2a2 2 0 0 0-1.8 1.3l-.3-.9c0-.6.4-1.2.7-1.5-.9-.3-1.8.2-2.2 1v-.7c0-1.2.6-2.1 2-2.1.5 0 1 .1 1.5.4l3.5 2c0-2.6-1.3-4-2.5-5.4l-1-1.1c-.5-.8-.3-2 .5-2.4l5.3-3a8 8 0 0 1 1.5 2.5l-1.5.8 2 1.2ZM70 17.4H49.6v-.8H70v.8Zm-17.8-2.8c-.2 0-.4.2-.4.4v1.1h-3v-1.5h.8v-1H70v1h.7V16h-2.9v-1c0-.3-.2-.5-.4-.5h-2c-.3 0-.5.2-.5.4V16h-3v-.6c0-.8-.6-1.4-1.3-1.4H59c-.7 0-1.4.6-1.4 1.4v.6h-3v-1c0-.3-.1-.5-.4-.5h-2Zm-13.3 3.8c.3-.3.7-.5 1.3-.5h.7l.8.2c.3 0 .7-.2.8-.4a.9.9 0 0 1-.8 1.2l-.8-.2a4 4 0 0 0-1.5-.3H39Zm11.8-8.6c1 0 1.8.8 1.8 1.8V13h-3v-2.9l1.2-.3Zm-8.2 16.3a6.8 6.8 0 0 0-2.2-2l3.7-1.3v-.3c-.4-1-.8-2.2-.8-2.8 0-1 .6-1.5 1.4-1.5-.3.5-.3 1.2 0 1.6a2 2 0 0 1 2-1.6c.5 0 1 .3 1.2.6-.8 0-1.8.4-2 1.2h.7c.5 0 1.3.4 1.3 1.3-.2-.1-.5-.3-.9-.3-.8 0-1.4.6-1.4 1.3 0 .6.3 1.1.6 1.7h-2l-1.6 2.1Z"/><path fill="#F1F3F9" fill-rule="evenodd" d="M98 35.9c0 1-.9 2.2-4.1 2.2h-2.3V40c0 .6.5 1 1.1 1h2.6c0 3.7 1 6.2 2.6 7.5h-2.1c-2 0-2.7.6-2.7 2.2-.7-.3-1.3-1-1.3-1.7-.7.2-.9 1-.9 2-1-.4-1.1-1.7-.8-2.3-.7 0-1.4.9-1.5 2-.4-.4-.6-1-.6-1.7 0-1.3.9-2.1 2.5-2.1h3.8c0-2.6-1.8-3.6-5.8-3.6h-.2c-.9 0-1.6-.7-1.6-1.5V41c0-4-2.4-8.5-8.4-8.5-2.3 0-4.2.6-5.5 1.3 0-1.4-.7-2.2-1.7-2.2-.3 0-.6 0-.8.2 0-.7.8-1.4 1.8-1.4 0-.2-.5-.6-1-.6-.6 0-1 .2-1.4.8a8.7 8.7 0 0 1-6.1-.3c-1-.3-1.9-.6-3.8-.6-2 0-2.9.3-3.8.6-1 .4-2 .7-3.9.7-.9 0-1.6-.2-2.2-.4-.4-.6-.8-.8-1.3-.8-.6 0-1 .4-1.1.6 1 0 1.8.7 1.8 1.4-.2-.2-.5-.2-.8-.2-1 0-1.7.8-1.7 2.2a12 12 0 0 0-5.5-1.3c-6 0-8.4 4.5-8.4 8.5v.8c0 .8-.7 1.5-1.6 1.5h-.2c-4 0-5.8 1-5.8 3.6h3.8c1.6 0 2.5.8 2.5 2.1 0 .7-.2 1.3-.6 1.7-.1-1.1-.8-2-1.5-2 .3.6.2 1.9-.8 2.3 0-1-.2-1.8-1-2a2 2 0 0 1-1.2 1.7c0-1.6-.7-2.2-2.7-2.2h-2.1c1.6-1.3 2.6-3.8 2.6-7.4H27c.6 0 1-.5 1-1.1v-1.7a4.2 4.2 0 0 1-4.3-4.5c0-2 1.4-3.3 2.8-4.6 1.3-1.2 2.5-2.4 2.5-3.9 0-1.6-1.2-2.7-2.7-2.7-1.6 0-2.8 1-2.8 2.4 0 1.1.8 1.9 1.7 1.9.5 0 .9-.3.9-.8 0-.6-.5-1-1.5-1 0-.7.6-1.4 1.6-1.4s1.6.7 1.6 1.6c0 1-.9 2.4-2.6 2.4-1.4 0-2.6-1-2.6-2.7a3 3 0 0 1 1-2.4c-.5-.1-1-.4-1.3-1h4c2.5 0 3.9 1.8 3.9 3.7 0 2-1.3 3.3-2.6 4.7.8.2 1.4.8 1.6 1.5a3 3 0 0 0-1.1-.2c-1.6 0-2.8 1-2.8 2.5 0 1.6 1.2 2.8 2.8 2.8 3.5 0 4.5-5 4.5-10.1l13.1 4.7v-1.4c0-1.6 1-2.6 2.3-2.6.6 0 1 .2 1.4.4 0-.6-.4-1-1-1.2v-8.2h23v8.2c-.6.2-1 .6-1 1.2.4-.2.8-.4 1.4-.4 1.3 0 2.3 1 2.3 2.6v1.4l10.8-4c.4.7 1 1 1.7 1a2 2 0 0 0 1.4-3.4c-.4-.4-.5-1-.3-1.5 2.1-5.8 3.6-8.3 5.6-10 .9 2.1.8 4.6-2 7.7l-.7.9-1.6 1.7c-.2.2-.2.4 0 .6l.3.4c3.8-4 6-5.5 8.2-6.1 0 2-1.1 4.1-4.5 5.6l-3 1.4-.2.4v.5c4.3-1.7 6.5-2.2 8.5-1.9-.8 1.6-2.3 2.8-5.5 2.8H90c-.1 0-.3.1-.3.3l-.1.4c3.6.1 5.4.5 6.7 1.4-1.1.9-2.6 1.3-5 .3a390.8 390.8 0 0 1-2.3-.8l-.2.3c2.6 1.3 3.8 2.2 4.5 3.3-1.2.3-2.4 0-3.8-1.5l-.4-.4-.7-.8c-.1 0-.3-.1-.4 0l-.3.1c1.6 2 2.2 3 2.4 4.1-1-.1-2-.7-2.5-2.4l-.4-1.2c0-.2-.2-.3-.3-.3h-.4c0 3.8 2.2 6 5.1 6.7.8.2 1.6.3 2.5.3 1.8 0 3-.6 3-1.2s-.8-1-2.3-1a8 8 0 0 0-3.8 1l-1-.5a10 10 0 0 1 5-1.4c1.8 0 3 .8 3 1.9ZM47.2 29a3 3 0 0 1 1.2-.2 2 2 0 0 1 1.6.6c0-.9-.7-1.4-1.6-1.4-.7 0-1.2.5-1.2 1Zm13.4-1.7H63V23h-2v-2.5s-.4-.2-1.1-.2c-.8 0-1.1.2-1.1.2V23h-2v4.3H59v-2.5s.3-.2.9-.2c.6 0 .9.2.9.2v2.5Zm9 2.1a2 2 0 0 1 1.6-.6c.4 0 .8 0 1.2.2 0-.5-.5-1-1.2-1-.9 0-1.6.5-1.6 1.4Z" clip-rule="evenodd"/><path fill="#F1F3F9" d="M94.2 65.2h1.2L97 68c1 .3 2 .2 2.7 0 .7-.4 1-1 1-1.6 0-1.1-1.1-1.6-2.4-2.2-.3 0-.5-.2-.8-.3-1.1-.5-2-1-2.7-2.1-.3-.6-.5-1.2-.5-2 0-1.2.5-2.1 1.4-2.8.9-.7 2-1 3.4-1 1.6 0 3 .3 4.2.9v3H102l-1.4-2.4c-1.9-.5-3.1.2-3.1 1.5 0 1.1 1.4 1.7 2.8 2.4l1.4.6a4 4 0 0 1 2.3 3.5c0 1.3-.6 2.3-1.6 3a7 7 0 0 1-4 1c-1.4 0-2.8-.3-4.2-1v-3.3Z"/><path fill="#F1F3F9" fill-rule="evenodd" d="M8.3 62.4c2.2-.5 3.3-1.5 3.3-3.1 0-1-.4-1.8-1.2-2.3-.8-.5-2-.8-3.2-.8H.4v1.2l1.4.4v9.9l-1.4.5v1.1h7.3c1.4 0 2.5-.3 3.3-.8a3 3 0 0 0 1.3-2.7c0-1-.4-1.7-1.1-2.3a5 5 0 0 0-2.9-1Zm0-2.7c0 1.4-.8 2.1-2.3 2.1h-.7v-4.1H6c1.5 0 2.3.7 2.3 2Zm-3 8.2v-4.6h1.1c1.5 0 2.3.8 2.3 2.3 0 1.5-.8 2.3-2.3 2.3H5.3Z" clip-rule="evenodd"/><path fill="#F1F3F9" d="M15.2 56.2v1.2l1.4.4v6.7c0 1.6.5 2.9 1.4 3.8a6 6 0 0 0 3.9 1.2 6 6 0 0 0 3.8-1.2c1-.8 1.5-2 1.5-3.6V58l1.5-.7v-1h-4.8v1l1.6.7.1 6.7c0 1.8-1.1 3.1-3 3.1-1.6 0-2.6-1-2.6-3v-7l1.5-.4v-1.2h-6.3Z"/><path fill="#F1F3F9" fill-rule="evenodd" d="M32 69.3v-1.1l1.4-.5v-9.9l-1.4-.4v-1.2h6.7c2 0 3.6.6 4.9 1.7 1.2 1 1.8 2.6 1.8 4.7 0 2-.6 3.7-1.9 5a6.7 6.7 0 0 1-4.8 1.7H32Zm6-1.4c1.1 0 2-.5 2.7-1.5.7-.9 1-2.2 1-3.8 0-3.2-1.4-4.9-3.8-4.9h-1v10.2h1Zm12.2-.3.8-2.2h4.5l.8 2.3-1.4.5v1.1H61v-1.1l-1-.5-4.4-11.5h-2.9l-4.3 11.4-1 .6v1.1H52v-1l-1.8-.7Zm3.7-6.3 1 2.7h-3.4l1-2.7.6-2h.2l.6 2Zm11.8-3.5-1.5-.4v-1.2H71c3 0 4.8 1.3 4.8 3.8 0 1.3-.4 2.3-1.3 3-1 .6-2.1 1-3.6 1H69v3.7l2 .5v1.1h-6.9v-1.1l1.5-.5v-9.9Zm4.2 4.7c1.6 0 2.4-.8 2.4-2.5 0-1.6-.7-2.3-2.3-2.3h-.9v4.8h.8Z" clip-rule="evenodd"/><path fill="#F1F3F9" d="m80.1 67.7-1.4.5v1.1h11.5v-4.2H89l-1.3 2.7h-4.1v-4.4l3.9.4v-2.2l-4 .4v-4.3h4l1.1 2.6h1.2v-4H78.7v1l1.4.5v9.9Zm39.1-7.4v-4H107v4h1.2l1.2-2.6h2v10l-1.8.5v1.1h7v-1.1l-1.8-.5v-10h2l1.2 2.6h1.2Z"/></svg>