<svg xmlns="http://www.w3.org/2000/svg" fill="none" viewBox="0 0 137 40"><path fill="#F1F3F9" d="M32 19.4c-1 0-1.2-.3-1-.6 0-.3.3-.5 1-.5.6 0 1.2.1 1.7.7-.5.2-1.2.4-1.8.4ZM43.4 1.3c-1.4.5-2.8 1.3-3.5 1.7A12.5 12.5 0 0 0 32.2.6C25.4.6 9.6 4.6 5 17c-1.8 4.9.3 9.2 5.1 9.2 2.1 0 5.6-1.1 8.9-5 .4-.6 0-1-.4-.5-3.7 4.1-7.8 5.4-10.2 4.4-5.8-2.5-.3-12 5.1-16.4a32.5 32.5 0 0 1 19.2-7.5c2.9 0 5.3 1 6.6 2.2-4 2.6-10 7.6-16.7 18.1-9 14.2-12 16.6-16.5 16.7-3.6.1-4.8-1.6-4.8-3.2s.8-2.8 2.2-3.4c.2-.1.3-.3.3-.4-.1-.2-.3-.2-.5 0a4.2 4.2 0 0 0-2.9 3.4C0 38 3 39.2 5.1 39.4c2.2 0 11 1.3 20.9-16.6 4.9-9 9.7-15.3 13.7-18.6.5.7.7 1.7.7 3.1-.3 4.3-3 9.5-6 11.3-.6-.6-1.5-1-2.1-1-1.3 0-2.1.5-2.2 1.2-.1.5.2 1.3 2 1.3.8 0 2-.5 2-.5.1.8.2 1.4 0 3.3-.5 5.9-6.7 15.5-10.6 15.5-2 0-2.2-1.6-2.1-2.8.1-1.6 1.6-6.2 7.7-7.5.2 0 .6-.6-.9-.3a11 11 0 0 0-6 4c-2.2 2.5-3 7.3 1.5 7.6 5.2.3 12.2-5.7 13-13.8.3-3.8-1-5.7-1.6-6.4 1-.4 7-2.6 7.7-9 .3-3-.8-5.2-2.2-6.7a14 14 0 0 1 3.3-1.7c.6-.2.1-.7-.4-.5ZM107 18.5c1 0 2-.8 2.1-1.7.2-1-.4-1.7-1.4-1.7-1 0-1.8.8-2 1.7-.2 1 .4 1.7 1.4 1.7Zm24 1.5h.4c-.2.7-.8 1.4-1.4 1.8-.2.1-.2.3.2.2.8-.2 2.7-1.4 2.8-3.4 0-.9-.6-1.6-1.4-1.6-.8 0-1.6.6-1.7 1.4-.2.8.3 1.6 1.2 1.6Z"/><path fill="#F1F3F9" d="M125.9 37.5c-1-.3-1.3-1.4-1.3-2 .4 0 1-.3 1.6-.8 1-.8 1.5-1.8 1.2-2.6 1-1 4.8-6.3 5.5-7.5 0 4.2-3.8 13.6-7 12.9Zm-59.7-1.1c-.8.9-1.7 1.3-2 1-.6-.2-1.3-1.3 2.6-7.1 4.6-6.8 5.8-6.8 6.2-6.5.5.3.2 1.6-.5 3-.8 1.6-1.3 2.6-2.7 4.7-.6 1-2.6 3.8-3.6 4.9Zm-26.1 0c-.9 1-1.7 1.3-2.2 1-.4-.1-1.1-1.3 2.8-7.1 4.5-6.8 5.7-6.8 6.2-6.5.4.3.1 1.7-.7 3.2-.8 1.6-1.2 2.4-2.6 4.5-1 1.4-2 3-3.5 4.9Zm86.1-12.6c1 0 0 2-.8 3.2-.6 1-1.7 3-3.8 3.2l-.8.2c.6-1 3.8-6.6 5.4-6.6Zm-63.5 8.5c-1 1.4-2.2 3-3.2 4s-2 1.4-2.4 1c-.3 0-.6-.9.3-2.3L74.6 7.6h-3l-15 23.8a31 31 0 0 1-3.8 5c-1 1-2 1.3-2.4 1-.3-.2-.5-1 .4-2.4L68 7.6h-3.1L50 31.2c-.9 1.3-2.9 4.3-3.8 5.2-1 .9-1.7 1.4-2.3 1-.4-.2-.4-1 .5-2.5l7.3-11.8H49l-1.4 2.2c.8-1.6 0-2.3-1.1-2.3-1.5 0-5.4 1.8-8.7 7-3 4.5-2 8.3.2 8.3 2 0 4-2.9 5.1-4.8-.8 1.8-1 3.4-.3 4.2.7.9 1.9.6 2.7.2a12 12 0 0 0 3.8-4.4c-.8 2-.8 3.6-.2 4.3.8.9 2.2.5 3 0a12 12 0 0 0 4-4.3c-1 2-1 3.6-.3 4.3.8.9 2.1.5 3 0C60 37 61 36 62.3 34.3c-.4 2.3.5 3.9 2 3.9 2 0 4-3 5-4.7-.6 1.8-1 3.3-.3 4.1.6.9 1.7.7 2.5.2a34.9 34.9 0 0 0 5.5-6l-4 6h3s3.8-6 4.6-7c3-4 6.5-7.4 7.2-6.8.3.3 0 1-.5 1.7-2 3.3-3.7 4.8-4.8 7.2-1 2-.8 4-.2 4.8.7.9 2 .6 3 0 1.2-.7 2.2-1.8 3.8-4.2-.7 1.8-1 3.5-.3 4.2.8.8 2 .5 3 0 1.4-.8 3-2.2 4.4-4.3-.7 1.7-1 3.4-.2 4.2.8 1 1.9.6 2.8.1 1.8-1 3.5-3.3 5.8-6.2.2-.2.4-.4-.2.4l-4 6h3s3.8-6 4.6-7c2.4-3.3 6.3-7.5 7.1-7 .4.4 0 1.1-.4 1.8-2 3.3-3.7 4.7-4.8 7.2-1 2.4-.8 4-.1 4.8.6.8 2 .5 2.9 0a11 11 0 0 0 3.9-4.2c-.1.8-.2 1.3 0 2.1.2 1.4.9 2.6 2.6 2.6 2 0 4-1.7 4.7-2.3.1 1.4 1 2.3 2.7 2.3 4.4 0 7.2-4 7.5-7.9.2-2-.3-6 0-6.8.3-.8 1.7-1.7 2.4-2.8.7-1 .6-2 .2-2-.6-.3-1.4.4-2 1.3a84.8 84.8 0 0 1-7.9 11.5c-.4-.1-1.2 0-1.9.8-1 1.2-1 2.2-1 2.6-1 1-3.4 2.8-4.7 2.5-2.5-.6 1-5.7 1.1-6 .2-.3.7-.4 1-.4a8.4 8.4 0 0 0 6.3-3.9c.9-1.6.8-3.4-.2-4-.9-.3-2.3 0-3.5.7-1.9 1.1-4 3-5.5 5.3-1 1.6-1.1 2.3-2 3.5-.7 1-1.7 2.6-2.8 3.7-1 .8-2.2 1.4-2.6 1-.3-.3-.3-1.2.5-2.4 1.4-2.4 3.8-5 5-7.5 1-2.4.9-4-.2-4.4-2-1-5.4 3-7.5 5.7l3.6-5.7h-2.8l-2 3.4c-1 1.6-6.4 8.3-7.7 9.5-.8.8-2 1.7-2.7 1.4-.3-.2-.4-1 .4-2.4l7.6-12h-3l-5.7 9c-1 1.3-2.3 3-3.7 4.2-1.2 1-2.4 1.6-2.9 1.1-.3-.3 0-1.2.7-2.3L99.3 21h5.4c3.9 0 5.3-1 6-1.8.2-.3.1-.6-.3-.2-.7.6-2.5 1.2-5.3 1.2h-5.3l4.9-7.5h-3l-4.9 7.5H94c-1.3 0-2.6.2-3.4.7-.6.4-.2.5.3.3l2.2-.2h3.2l-7.5 11.5a25 25 0 0 1-3.1 3.8c-.8.8-1.8 1.3-2.2 1-.4-.2-.4-1 .4-2.4 1.5-2.4 3.8-4.9 5-7.5 1-2.2 1-3.9 0-4.4-2-.9-5.3 2.8-7.7 5.7l3.7-5.7H82l-2 3.3a82 82 0 0 1-8 10.2c-.8.7-1.5 1.2-2 .9-.3-.3 0-1.4.6-2.4L78 23h-2.8l-1.4 2.3c.8-1.6 0-2.3-1.2-2.3-1.4 0-5.4 2-8.7 7-.2.3-.7 1.1-1.2 2.3Z"/></svg>