<svg xmlns="http://www.w3.org/2000/svg" fill="none" viewBox="0 0 140 22"><path fill="#F1F3F9" d="m130.69 11.24-5.94 10.38h2.56l4.6-8.24 4.6 8.24h2.56l-5.94-10.38 5.44-9.68H136l-4.1 7.55-4.1-7.55h-2.55l5.43 9.68ZM112.94 3.3c4.6 0 8.22 3.75 8.22 8.3a8.3 8.3 0 0 1-8.22 8.3 8.3 8.3 0 0 1-8.23-8.3c0-4.55 3.63-8.3 8.23-8.3Zm0-2.08a10.47 10.47 0 0 0-10.46 10.41 10.4 10.4 0 0 0 10.46 10.35 10.4 10.4 0 0 0 10.46-10.35c0-5.75-4.74-10.4-10.46-10.4M90.9 12.81h.56l6.06 8.8h2.75l-6.39-9c3.1-.26 5.03-2.44 5.03-5.53 0-4.52-3.54-5.53-7.35-5.53h-2.9v20.06h2.24v-8.8Zm0-9.18h.66c2.7 0 5.11.32 5.11 3.61 0 3.12-2.55 3.6-5.08 3.6h-.69v-7.2Zm-14.31 0h.82c2.6 0 5.24.24 5.24 3.51 0 2.87-2.1 3.62-4.57 3.62h-1.5V3.64Zm0 9.2h1.62c1.68 0 3.4-.21 4.76-1.32a5.62 5.62 0 0 0 1.92-4.32c0-1.78-.78-3.54-2.27-4.58-1.46-1-3.24-1.06-4.98-1.06h-3.3v20.06h2.25v-8.78Zm-10.94 1.02h-6.79l3.43-8.04 3.36 8.04Zm.87 2.07 2.37 5.7h2.48L62.35.6l-9.26 21.03h2.44l2.43-5.7h8.56Zm-24.42-3.1h.55l6.07 8.8h2.74l-6.38-9c3.08-.26 5.02-2.44 5.02-5.53 0-4.52-3.54-5.53-7.34-5.53h-2.9v20.06h2.24v-8.8Zm0-9.18h.66c2.69 0 5.11.32 5.11 3.61 0 3.12-2.55 3.6-5.08 3.6h-.7V3.64ZM22.88 1.56h-2.24v12.56c0 2.3.22 4.13 1.98 5.8a7.5 7.5 0 0 0 5.18 2.05 7.39 7.39 0 0 0 5.4-2.29c1.6-1.65 1.76-3.38 1.76-5.56V1.56h-2.24v11.95c0 1.57.09 3.32-.98 4.6a5.3 5.3 0 0 1-3.94 1.78 5.16 5.16 0 0 1-4.04-1.91c-.93-1.28-.88-2.98-.88-4.47V1.56ZM16.92 3.2a9.68 9.68 0 0 0-5.99-1.97A10.5 10.5 0 0 0 .47 11.67c0 5.7 4.8 10.3 10.46 10.3A10.3 10.3 0 0 0 16.92 20v-2.77a8.8 8.8 0 0 1-6.07 2.66c-4.5 0-8.14-3.88-8.14-8.3 0-4.41 3.62-8.3 8.09-8.3a8.59 8.59 0 0 1 6.11 2.66V3.19Z"/></svg>