<svg xmlns="http://www.w3.org/2000/svg" fill="none" viewBox="0 0 140 46">
  <path fill="#F1F3F9" fill-rule="evenodd" d="M34.66.66h9.3c11.33 0 20.55 9.52 20.55 21.25s-9.22 21.25-20.56 21.25H33.14l-3-8.5H13.1l-2.92 8.5H.7L16.31.65H27.4l12.42 33.91h3.38a12.55 12.55 0 0 0 8.87-3.77 12.35 12.35 0 0 0 3.5-8.92 12.28 12.28 0 0 0-3.5-8.93 12.46 12.46 0 0 0-8.87-3.77h-8.54V.67Zm-13.09 9.71L16.1 26.15h11.04l-5.57-15.78Z" clip-rule="evenodd"/>
  <path fill="#F1F3F9" d="M115.37 12.12c-.2.08-.42.12-.64.11a1.6 1.6 0 0 1-1.2-.47 1.58 1.58 0 0 1-.48-1.16 1.55 1.55 0 0 1 .48-1.15 1.67 1.67 0 0 1 1.2-.46 1.61 1.61 0 0 1 1.19 2.77 1.6 1.6 0 0 1-.55.36Z"/>
  <path fill="#F1F3F9" fill-rule="evenodd" d="m79.22 9.57-5.26 14.28h3.2l1.1-3.18h5.46l1.12 3.18h3.3L82.91 9.57h-3.7Zm-.14 8.66 1.88-5.36 1.9 5.4-3.78-.04Z" clip-rule="evenodd"/>
  <path fill="#F1F3F9" d="M89.6 20.8a2.62 2.62 0 0 0 1.8 2.88c.38.13.8.16 1.2.1H95v-2.4h-1.48a1.05 1.05 0 0 1-.8-.24 1.15 1.15 0 0 1-.22-.8v-4.57h2.4v-2.43h-2.4v-2.92h-2.9v2.92h-1.74v2.43h1.74v5.03Z"/>
  <path fill="#F1F3F9" fill-rule="evenodd" d="M101.5 23.93a6.7 6.7 0 0 1-3.04-.65 4.45 4.45 0 0 1-2-1.86 5.57 5.57 0 0 1-.68-2.82 6 6 0 0 1 .65-2.85 4.78 4.78 0 0 1 1.87-1.87 5.81 5.81 0 0 1 2.79-.65c1-.03 2 .18 2.9.62.78.39 1.44 1 1.9 1.75.42.84.6 1.79.5 2.73.04.32.04.65 0 .98h-7.64c.03.66.29 1.3.74 1.8a2.36 2.36 0 0 0 1.8.64 2.5 2.5 0 0 0 1.48-.38c.39-.26.66-.65.76-1.1h2.77a4.1 4.1 0 0 1-.8 1.87 4.24 4.24 0 0 1-1.6 1.31c-.75.33-1.57.5-2.4.48Zm-.25-8.57a2.44 2.44 0 0 0-1.6.54 2.2 2.2 0 0 0-.8 1.46h4.8a2.25 2.25 0 0 0-.8-1.48 2.51 2.51 0 0 0-1.6-.52Z" clip-rule="evenodd"/>
  <path fill="#F1F3F9" d="M111.13 9.57h-2.9v14.25h2.9V9.57Zm5.04 3.77h-2.9V23.8h2.9V13.34Z"/>
  <path fill="#F1F3F9" fill-rule="evenodd" d="M123.06 13.23c.98-.02 1.94.2 2.82.62.8.42 1.47 1.08 1.9 1.87a5.12 5.12 0 0 1 .63 3.64h-7.65c.03.66.29 1.3.74 1.8a2.36 2.36 0 0 0 1.74.64c.52.02 1.03-.11 1.47-.38.4-.26.67-.66.77-1.11h2.8c-.1.68-.38 1.33-.8 1.87a4.24 4.24 0 0 1-1.6 1.32 6.7 6.7 0 0 1-5.47-.22 4.45 4.45 0 0 1-1.97-1.86 5.57 5.57 0 0 1-.69-2.82c-.02-.99.2-1.97.66-2.85a4.78 4.78 0 0 1 1.87-1.87 5.81 5.81 0 0 1 2.78-.65Zm-1.47 2.67c-.43.37-.7.9-.77 1.46h4.77a2.25 2.25 0 0 0-.8-1.48 2.44 2.44 0 0 0-1.6-.52 2.46 2.46 0 0 0-1.6.54Z" clip-rule="evenodd"/>
  <path fill="#F1F3F9" d="M133.08 18.68c-.04-.71.16-1.41.57-1.99a2.14 2.14 0 0 1 1.8-.65h1.15v-2.7h-.5a3.9 3.9 0 0 0-1.87.4c-.48.3-.88.7-1.17 1.17l-.27-1.58h-2.62v10.46h2.9v-5.11Z"/>
  <path fill="#F1F3F9" fill-rule="evenodd" d="M79.88 26.93a7.84 7.84 0 0 1 3.8.9c1.08.6 1.96 1.5 2.55 2.57a8.19 8.19 0 0 1 0 7.38 6.45 6.45 0 0 1-2.55 2.53 7.84 7.84 0 0 1-3.8.9h-5V26.93h5Zm1.65 11.4c.53-.22 1-.55 1.37-.98v.02a5.7 5.7 0 0 0 0-6.65 3.74 3.74 0 0 0-3.02-1.25h-1.9v9.14h1.9c.56.03 1.13-.07 1.65-.28Zm14.98-7.12a5.94 5.94 0 0 0-2.81-.63c-.97-.02-1.93.2-2.79.66a4.78 4.78 0 0 0-1.87 1.88 5.96 5.96 0 0 0-.65 2.84 5.5 5.5 0 0 0 .68 2.8 4.53 4.53 0 0 0 1.97 1.88 6.7 6.7 0 0 0 3.04.65c.83.02 1.65-.14 2.4-.48.64-.3 1.19-.75 1.6-1.31.42-.55.7-1.2.8-1.88h-2.77c-.1.46-.38.86-.77 1.12-.44.27-.95.4-1.47.38a2.37 2.37 0 0 1-1.74-.65c-.45-.5-.7-1.13-.74-1.8h7.65a5.08 5.08 0 0 0-2.53-5.46Zm-5.02 3.51c.05-.57.33-1.1.77-1.46a2.38 2.38 0 0 1 1.6-.54 2.5 2.5 0 0 1 1.6.52c.44.38.73.9.8 1.48h-4.77Z" clip-rule="evenodd"/>
  <path fill="#F1F3F9" d="M105.74 34.72c1.12.08 2.2.4 3.2.9a2.4 2.4 0 0 1 1.14 2.24c0 .65-.2 1.28-.6 1.8a4.1 4.1 0 0 1-1.7 1.19c-.78.28-1.63.42-2.47.4a5.98 5.98 0 0 1-3.57-.96 3.18 3.18 0 0 1-1.45-2.63H103a1.47 1.47 0 0 0 .68 1.1c.48.32 1.04.47 1.6.44.5.02 1-.08 1.46-.29a.92.92 0 0 0 .54-.84.72.72 0 0 0-.25-.62 1.6 1.6 0 0 0-.69-.3l-1.47-.2a14.5 14.5 0 0 1-2.32-.47 3.2 3.2 0 0 1-1.49-.9 2.34 2.34 0 0 1-.54-1.59 2.9 2.9 0 0 1 .56-1.8c.4-.55.96-.97 1.6-1.21a6.91 6.91 0 0 1 5.87.49 3.07 3.07 0 0 1 1.42 2.47h-2.75a1.24 1.24 0 0 0-.62-.97c-.43-.27-.94-.4-1.44-.38-.47-.01-.93.1-1.33.32a.89.89 0 0 0-.5.81.65.65 0 0 0 .26.56c.22.12.45.21.7.25.23.05.58.1 1.06.15l.16.01.22.03Zm7.52-8.36a1.61 1.61 0 0 0-.65 3.12c.2.08.43.12.65.11a1.58 1.58 0 0 0 1.12-2.73 1.6 1.6 0 0 0-1.12-.5Zm-1.46 4.34h2.9v10.46h-2.9V30.71Z"/>
  <path fill="#F1F3F9" fill-rule="evenodd" d="M124.49 32.15a3.86 3.86 0 0 0-3.2-1.59 4.93 4.93 0 0 0-2.51.65 4.45 4.45 0 0 0-1.75 1.86 6.46 6.46 0 0 0 0 5.54c.37.75.94 1.4 1.65 1.84a4.8 4.8 0 0 0 2.51.65 3.88 3.88 0 0 0 3.2-1.44v1.1a2.34 2.34 0 0 1-.67 1.82 3.22 3.22 0 0 1-3.49.19c-.4-.27-.7-.69-.81-1.16h-2.86a3.43 3.43 0 0 0 1.47 2.78 6.12 6.12 0 0 0 3.61.96 6.29 6.29 0 0 0 4.27-1.22 4.18 4.18 0 0 0 1.36-3.27V30.71h-2.54l-.24 1.44Zm-.75 5.84a2.57 2.57 0 0 1-3.75 0c-.5-.6-.75-1.37-.72-2.14-.03-.78.23-1.54.72-2.15a2.34 2.34 0 0 1 1.9-.82 2.32 2.32 0 0 1 1.86.84c.48.62.73 1.38.69 2.16.03.76-.22 1.51-.7 2.11Z" clip-rule="evenodd"/>
  <path fill="#F1F3F9" d="M137.11 30.84c.52.2 1 .5 1.4.88a5.02 5.02 0 0 1 1.2 3.76v5.68h-2.89v-5.5c0-1.81-.72-2.72-2.14-2.72a2.13 2.13 0 0 0-1.75.76 3.3 3.3 0 0 0-.6 2.12v5.34h-2.9V30.71h2.53l.25 1.3c.37-.44.83-.8 1.35-1.05a4.3 4.3 0 0 1 1.92-.38 4.2 4.2 0 0 1 1.63.26Z"/>
</svg>