<svg xmlns="http://www.w3.org/2000/svg" fill="none" viewBox="0 0 53 70"><path fill="#F1F3F9" d="M22 27.2a9 9 0 0 1 9.5.3 9.1 9.1 0 0 1 3.7 10c-.2.7-1 2-1.5 2.8a9 9 0 0 1-4.8 3.4 10.3 10.3 0 0 1-6.3-.4l-.8-.5a9.8 9.8 0 0 1-2.9-2.6 9.6 9.6 0 0 1-1.5-5.9 9.1 9.1 0 0 1 4.5-7.1Z"/><path fill="#F1F3F9" fill-rule="evenodd" d="M41 70h12V0H0v70h11.9l.2-.4 1.4-1.8a21.3 21.3 0 0 1 4-3.3 17.5 17.5 0 0 1 22.7 4.7l.7.8Zm-1-45.5A17.7 17.7 0 0 0 29 18a36 36 0 0 0-5 0c-1.8.2-4.5 1.1-6.2 2.1a17.3 17.3 0 0 0 3.7 31.4l.2.1c1.8.5 1.8.5 2.9.6h3.7a22.1 22.1 0 0 0 5.3-1.5A17.2 17.2 0 0 0 40 24.5Z" clip-rule="evenodd"/></svg>