<svg xmlns="http://www.w3.org/2000/svg" fill="none" viewBox="0 0 140 44"><path fill="#F1F3F9" d="M2.7 2c0-.3-.9-1.2-1.2-1.2H.7V0h4.7l4.9 12.4L15.6 0h4.2v.8H19c-.3 0-1.2 1-1.2 1.3v12.4c0 .3 1 1.2 1.2 1.2h.8v.8h-6.2v-.8h.8c.3 0 1.2-.9 1.2-1.2v-12l-6 14.3L3.8 2.2v12.2c0 .4 1 1.3 1.3 1.3h.8v.8H.7v-.8h.8c.3 0 1.2-1 1.2-1.3V2.1Zm23.8 7.5c.3-1.7 0-3.2-1.8-3.2-2 0-3.1 1.7-3.1 4.2S23 15 25.5 15a4 4 0 0 0 2-.5c.5-.3 1-.8 1.3-1.5h.6c-.7 2.4-2 3.8-4.7 3.8-2.9 0-4.8-2.5-4.8-5.5 0-3.5 2.2-5.8 5-5.8A4.7 4.7 0 0 1 28.6 7l-1.5 2.4h-.6Zm21.2-6.2a1.3 1.3 0 0 0 1-.4 1.3 1.3 0 0 0 .3-1 1.3 1.3 0 0 0-.3-1 1.3 1.3 0 0 0-1-.4 1.3 1.3 0 0 0-1 .4 1.4 1.4 0 0 0-.5 1 1.4 1.4 0 0 0 .5 1 1.4 1.4 0 0 0 1 .4Z"/><path fill="#F1F3F9" d="M62.6 15.7c-.3 0-1.2-.8-1.2-1.1v-6a3 3 0 0 0-.8-2.2 2.8 2.8 0 0 0-2.1-.8c-1.9 0-2.9 1-4.1 2.4L54 5.8h-3.3v.7h.6c.3 0 1.1.8 1.1 1.1v6.9c0 .3-.8 1-1 1H50c-.3 0-1.1-.7-1.1-1V5.8H45v.7h.6c.3 0 1.2.8 1.2 1.1v6.9c0 .3-.9 1-1.2 1h-1.1a6 6 0 0 1-2-1.3L37 6.6l4-4.3c.5-.6 1.2-1.1 2-1.5h.8V0h-5.9v.8h.8c.3 0 1.2 1.1 1 1.4l-5.8 6.6V2.1c0-.4 1-1.3 1.2-1.3h.8V0h-6.3v.8h.8c.3 0 1.2 1 1.2 1.3v12.4c0 .3-1 1.2-1.2 1.2h-.8v.8H36v-.8h-.7c-.3 0-1.3-.9-1.3-1.2V10l1.7-1.8 5.5 8.2h15v-.8h-.5c-.3 0-1.2-.7-1.2-1V9c0-.7 2-2.2 3.5-2.2a1.6 1.6 0 0 1 1.2.5 1.6 1.6 0 0 1 .4 1.3v5.9c0 .3-.8 1-1.1 1h-.6v.9h5.4v-.8h-.6Zm1.9-3c0 1 1.4 3.2 3.7 3.2 1.3 0 2-.5 2-1.5 0-1.2-1-1.6-2-2l-2.2-1c-1.2-.6-2.2-1.4-2.2-2.9 0-2 1.1-3 3.1-3 1.2 0 1.8.5 2.6.5.3 0 .5 0 .6-.3h.6V9h-.6c-.2-.8-.6-1.4-1.1-2-.6-.5-1.3-.7-2.1-.8-1.2 0-1.8.6-1.8 1.4 0 .9.6 1.3 1.7 1.8l2.3 1c1.1.4 2.4 1.3 2.4 3 0 2-1.4 3.2-3.4 3.2-1.3 0-2.1-.6-3-.6a.9.9 0 0 0-.8.3h-.5v-3.7h.6l.1.1Zm7.7-1.5c0-3.2 2.1-5.7 4.8-5.7a3.6 3.6 0 0 1 2.7 1 3.7 3.7 0 0 1 1 2.8l.1.7-7 .6c0 2.2 1.5 4.3 3.9 4.3a3.2 3.2 0 0 0 3.2-2h.7c-.7 2.4-2 3.9-4.5 3.9-3 0-5-2.6-5-5.6ZM79 9.4c.2-1.5 0-3-2.2-3-2 0-3 1.8-3 3.5l5.2-.5Zm3.7-1.6a3 3 0 0 0-1.3-1.2h-.5v-.8h5.6v.7h-.7c-.3 0-1 .8-1 1.2l2.5 5.8 2.4-5.8a1.6 1.6 0 0 0-.9-1.1h-.6v-.8h4.2v.7h-.5c-.3 0-1 .8-1.3 1.2l-3.5 8.2-2.7 6-.9-.5 2.8-5.9-3.6-7.7ZM32 25c0 .7.2 1.3.6 1.9.4.5 1 .9 1.6 1a109 109 0 0 0 6.8 6.8c.6-1 1-2.3.9-3.5 0-1.5-1-2.4-2.6-2.5V28h5.8v.8h-.7c-.7.4-1.2 1-1.4 1.8 0 1.6-.5 3.2-1.4 4.6 1 1 2.1 1.9 3.3 2.7h1v.8H44a5.4 5.4 0 0 1-4-1.7 7.1 7.1 0 0 1-5.4 2 5 5 0 0 1-3.5-1.3 5 5 0 0 1-1.6-3.5 6.1 6.1 0 0 1 2.6-5c-.8-1-1.3-2.2-1.3-3.5 0-2.4 1.6-3.7 4-3.7 1.4 0 2.2.5 2.9.5.3 0 .6 0 .7-.3h.7V26h-.7c0-1.2-1.6-3.4-3.8-3.4-1.7 0-2.7.9-2.7 2.4Zm-.7 8c0 2.3 2.4 4.6 4.7 4.6a6 6 0 0 0 3.6-1.2 82.7 82.7 0 0 1-7-7 4.5 4.5 0 0 0-1.3 3.5Zm31.1-5c0-1.8-1.9-5.2-4.9-5.2-2.8 0-4.5 1.5-4.8 5.3l.1 4.2c0 1.4.7 2.8 1.7 3.7a5 5 0 0 0 3.8 1.5c2.8 0 4.2-1.2 5.2-3.4h.9a6.7 6.7 0 0 1-2.5 3.5 6.5 6.5 0 0 1-4.1 1.2c-4.7 0-7.6-3.8-7.6-8.6 0-4.7 2.7-8.4 7.2-8.4 1.7 0 2.8.7 4 .7a1.1 1.1 0 0 0 1-.5h.7v6h-.7Zm3 5.2c0-3.5 2.5-5.6 5.3-5.6 2.7 0 5.2 2.1 5.2 5.6 0 3.5-2.5 5.7-5.3 5.7a5.2 5.2 0 0 1-3.7-1.7 5.4 5.4 0 0 1-1.5-4Zm8.4 1.8v-3.6c-.2-1.8-1.2-3-3.1-3-2 0-2.8 1.2-3 3-.2 1.1-.2 2.3 0 3.5.2 1.7 1 3 3 3s2.9-1.2 3-2.9Z"/><path fill="#F1F3F9" d="M93 36.6c0 .4.8 1.1 1 1.1h.5v.8h-5.2v-.8h.5c.3 0 1.1-.8 1.1-1.1v-5.9a1.6 1.6 0 0 0-.4-1.3 1.5 1.5 0 0 0-1.2-.5c-1.4 0-3 1.4-3 2.1v5.6c0 .4.7 1.1 1 1.1h.6v.8h-5.3v-.8h.5c.3 0 1.1-.8 1.1-1.1v-5.9a1.6 1.6 0 0 0-.4-1.3 1.6 1.6 0 0 0-1.3-.5c-1.4 0-3 1.4-3 2.2v5.6c0 .3.7 1 1 1h.6v.8h-5.3v-.7h.6c.3 0 1-.8 1-1.1v-7c0-.3-.7-1-1-1h-.6v-.8H79l.5 2c1.1-1.2 2-2.2 3.8-2.2.6 0 1.3.1 1.8.6.5.4.9 1 1 1.7 1.2-1.3 2-2.2 3.8-2.2a2.7 2.7 0 0 1 2.1.8 2.9 2.9 0 0 1 .8 2.2v5.8h.2Z"/><path fill="#F1F3F9" d="M97.6 27.9 98 30a4 4 0 0 1 1.5-1.8 4 4 0 0 1 2.3-.6c2.6 0 4.1 2.1 4.1 5.4 0 3.3-1.8 5.8-4.3 5.8-.7 0-1.5-.1-2.1-.5-.7-.4-1.2-1-1.5-1.6v5c0 .4.9 1.2 1.1 1.2h.7v.8h-5.5v-.8h.7c.2 0 1-.8 1-1.1v-12c0-.4-.8-1.1-1-1.1h-.7v-.8h3.3Zm.4 3.8v2.9c0 .8.3 1.6.9 2.2a3 3 0 0 0 2.1.9c1.8 0 2.6-1.2 2.9-2.9v-3.1c-.2-1.8-1.2-2.8-2.6-2.8-1.8 0-2.8 1.2-3.3 2.9Zm30.7 6.1c-.3 0-1.1-.8-1.1-1.1v-6a3 3 0 0 0-1.8-2.8c-.4-.2-.7-.2-1.1-.2-2 0-3 1-4.2 2.4l-.3-2.2h-3.3v.8h.6c.3 0 1.1.8 1.1 1.1v6.8c0 .4-.8 1.1-1 1.1h-1.4c-.3 0-1.1-.8-1.1-1.1v-5.8c0-2.1-1.7-3.2-4-3.2a5.3 5.3 0 0 0-4.2 1.7l1.4 2.2h.8c-.8-1.9-.2-3 1.6-3 1.7 0 2.4.8 2.4 2.3v1.3l-2.7.6c-1.5.3-3.4 1-3.4 3.2a2.8 2.8 0 0 0 1.6 2.6c.3.2.7.3 1 .3 1.6 0 2.7-1.3 3.6-2.4l.2 2.2h9v-.8h-.6c-.3 0-1.2-.8-1.2-1v-5.6c0-.8 2-2.3 3.5-2.3a1.6 1.6 0 0 1 1.2.5l.4.6v6.6c0 .4-.8 1.1-1 1.1h-.7v.8h5.3v-.8h-.6Zm-15.6-2.3c-.4.7-1.5 1.8-2.6 1.8a1.6 1.6 0 0 1-1.2-.5 1.7 1.7 0 0 1-.5-1.2c0-1 .5-1.8 1.8-2.1l2.5-.7v2.7Zm16.9-5.6a3 3 0 0 0-1.3-1.2h-.5v-.8h5.6v.8h-.6c-.3 0-1 .7-1 1.1l2.4 5.8 2.4-5.8a1.6 1.6 0 0 0-.9-1.1h-.6v-.8h4.2v.8h-.5c-.2 0-1 .8-1.2 1.1l-3.6 8.3-2.6 5.9-1-.5 2.8-5.8-3.6-7.8Z"/></svg>