<?xml version="1.0" standalone="no"?>
<!DOCTYPE svg PUBLIC "-//W3C//DTD SVG 20010904//EN"
 "http://www.w3.org/TR/2001/REC-SVG-20010904/DTD/svg10.dtd">
<svg version="1.0" xmlns="http://www.w3.org/2000/svg"
 width="700.000000pt" height="700.000000pt" viewBox="0 0 700.000000 700.000000"
 preserveAspectRatio="xMidYMid meet">
<g transform="translate(0.000000,700.000000) scale(0.100000,-0.100000)"
fill="#000000" stroke="none">
<path d="M3050 6738 c-245 -143 -465 -272 -490 -286 -25 -13 -57 -33 -72 -43
-14 -11 -28 -19 -31 -19 -3 0 -90 -50 -194 -111 -103 -61 -206 -121 -228 -134
-22 -12 -133 -77 -248 -144 -114 -67 -222 -130 -240 -140 -17 -10 -97 -57
-177 -103 -80 -47 -161 -95 -180 -106 -19 -11 -114 -66 -210 -122 -96 -57
-219 -128 -272 -159 -54 -31 -98 -58 -98 -61 0 -4 209 -127 364 -213 28 -16
67 -38 86 -49 19 -11 51 -30 70 -41 19 -11 145 -83 280 -160 135 -77 254 -145
265 -151 32 -18 381 -218 433 -249 26 -15 56 -32 67 -38 11 -5 29 -15 40 -22
19 -11 231 -133 305 -175 19 -11 80 -45 135 -77 55 -31 118 -68 140 -80 22
-13 189 -108 372 -213 l331 -190 334 190 c183 104 353 201 378 215 25 14 90
51 145 83 55 32 123 70 150 85 28 16 113 64 190 108 77 44 318 181 535 305
217 123 458 261 535 305 77 44 149 85 160 91 194 108 475 271 475 275 0 3
-100 64 -223 135 -122 70 -247 143 -277 161 -30 18 -73 43 -95 55 -22 12 -119
68 -215 125 -519 303 -756 438 -765 438 -6 0 -63 -29 -126 -65 -126 -73 -147
-85 -367 -208 -83 -47 -152 -88 -152 -91 0 -5 156 -102 271 -169 139 -80 629
-376 629 -380 0 -4 -252 -149 -525 -301 -55 -31 -165 -93 -244 -137 -78 -45
-146 -82 -149 -82 -3 0 -13 -6 -21 -14 -9 -7 -44 -29 -79 -47 -35 -19 -71 -38
-80 -44 -9 -5 -49 -28 -87 -49 -39 -22 -86 -48 -105 -59 -274 -157 -294 -166
-317 -152 -11 8 -47 28 -80 46 -32 17 -62 35 -68 39 -5 4 -39 23 -75 43 -36
19 -96 52 -135 74 -38 22 -90 51 -115 65 -25 14 -148 84 -275 155 -287 162
-292 165 -450 253 -71 40 -175 98 -230 130 -55 31 -108 60 -117 63 -10 4 -18
10 -18 14 0 4 69 48 153 96 83 49 159 93 167 98 45 28 272 159 275 159 2 0 41
23 87 50 46 28 90 55 98 59 8 5 206 121 439 258 233 136 445 260 470 274 25
15 150 87 276 161 127 74 238 139 249 145 16 9 -22 35 -255 173 -151 89 -295
175 -322 191 -26 16 -48 29 -50 29 -1 -1 -202 -118 -447 -262z"/>
<path d="M445 3420 c0 -1060 4 -1663 10 -1669 6 -5 147 -87 315 -184 168 -96
321 -184 340 -196 19 -11 42 -24 50 -28 8 -4 51 -28 95 -54 124 -72 485 -280
530 -305 22 -12 67 -37 100 -56 119 -69 321 -185 365 -210 25 -14 108 -62 184
-107 76 -44 140 -81 142 -81 2 0 41 -22 86 -49 46 -26 189 -109 318 -183 129
-74 280 -161 335 -193 55 -32 119 -69 143 -82 l42 -24 93 54 c100 59 414 240
1051 604 225 129 426 246 447 259 21 13 41 24 43 24 3 0 27 13 54 29 26 15 68
39 93 53 24 14 163 94 309 178 146 84 279 160 295 170 310 176 608 348 635
365 l35 22 -1 1014 c0 620 -4 1013 -10 1012 -5 -1 -179 -99 -387 -217 -208
-119 -395 -225 -415 -236 -20 -11 -57 -32 -82 -47 -69 -40 -1157 -661 -1220
-696 -30 -17 -156 -88 -279 -159 -123 -70 -225 -128 -227 -128 -2 0 -28 -16
-58 -35 -30 -19 -57 -35 -59 -35 -2 0 -71 -38 -152 -85 -82 -47 -152 -85 -157
-85 -4 0 -8 -21 -8 -47 -2 -407 0 -706 3 -710 3 -2 81 40 173 93 93 54 187
107 209 119 22 13 128 73 235 135 107 62 210 121 227 131 48 27 889 510 1161
666 344 198 389 223 397 223 3 0 4 -123 3 -272 l-3 -273 -415 -238 c-228 -131
-455 -261 -505 -289 -120 -68 -66 -37 -615 -353 -113 -65 -223 -128 -245 -140
-22 -13 -170 -98 -328 -189 -159 -91 -293 -166 -297 -166 -9 0 -326 181 -1640
935 -344 197 -636 365 -650 372 -14 8 -43 25 -65 38 l-40 23 -3 922 c-2 788 0
921 12 917 8 -3 202 -113 432 -245 231 -132 435 -248 454 -259 19 -11 175
-100 345 -198 171 -98 330 -189 355 -203 25 -14 208 -118 407 -233 199 -114
370 -210 381 -213 12 -4 40 6 78 28 32 19 75 43 94 54 31 17 363 204 450 254
55 32 185 106 238 135 69 38 97 55 193 110 48 27 93 53 100 57 8 4 23 12 34
19 11 7 52 30 90 51 39 21 103 59 142 82 40 24 75 44 78 44 2 0 39 20 81 45
41 25 77 45 79 45 1 0 53 29 114 65 62 36 114 65 117 65 2 0 37 20 77 43 61
37 165 97 362 207 22 12 85 48 140 80 55 31 120 68 145 82 25 14 77 44 117 67
78 44 91 51 233 131 52 30 97 57 100 61 7 10 6 737 -1 744 -3 3 -109 -54 -235
-126 -126 -72 -247 -141 -269 -154 -22 -12 -355 -202 -740 -422 -385 -220
-713 -408 -730 -417 -16 -9 -50 -28 -75 -43 -61 -35 -804 -460 -859 -491 -25
-14 -67 -38 -94 -54 l-48 -28 -72 42 c-121 71 -171 98 -189 104 -10 4 -18 10
-18 15 0 5 -5 9 -10 9 -6 0 -40 18 -76 40 -36 22 -67 40 -69 40 -2 0 -122 68
-267 151 -145 84 -283 163 -308 177 -25 14 -229 131 -455 260 -568 325 -684
392 -730 417 -22 13 -222 127 -444 254 -221 127 -406 231 -410 231 -3 0 -6
-747 -6 -1660z"/>
</g>
</svg>
